<svg width="20" height="20" viewBox="0 0 20 20" fill="none" xmlns="http://www.w3.org/2000/svg">
<path d="M4.79167 2.5C3.53343 2.5 2.5 3.53343 2.5 4.79167V15.2083C2.5 16.4666 3.53343 17.5 4.79167 17.5H15.2083C16.4666 17.5 17.5 16.4666 17.5 15.2083V4.79167C17.5 3.53343 16.4666 2.5 15.2083 2.5H4.79167ZM4.79167 3.75H15.2083C15.7909 3.75 16.25 4.20907 16.25 4.79167V13.3146L13.7451 10.8911C13.7448 10.8908 13.7446 10.8906 13.7443 10.8903C13.4201 10.5773 12.9945 10.4167 12.5724 10.4167C12.1505 10.4167 11.7249 10.5772 11.4006 10.8911L10.5469 11.7171L7.972 9.22607C7.64848 8.9124 7.22336 8.75 6.79932 8.75C6.37462 8.75 5.95041 8.91341 5.62744 9.22526C5.62717 9.22553 5.6269 9.2258 5.62663 9.22607L3.75 11.0417V4.79167C3.75 4.20907 4.20907 3.75 4.79167 3.75ZM12.7083 5.41667C12.1354 5.41667 11.6266 5.65401 11.3037 6.01725C10.9808 6.38049 10.8333 6.84028 10.8333 7.29167C10.8333 7.74306 10.9808 8.20284 11.3037 8.56608C11.6266 8.92932 12.1354 9.16667 12.7083 9.16667C13.2812 9.16667 13.7901 8.92932 14.113 8.56608C14.4358 8.20284 14.5833 7.74306 14.5833 7.29167C14.5833 6.84028 14.4358 6.38049 14.113 6.01725C13.7901 5.65401 13.2812 5.41667 12.7083 5.41667ZM12.7083 6.66667C12.9687 6.66667 13.0849 6.74182 13.1787 6.84733C13.2725 6.95284 13.3333 7.11806 13.3333 7.29167C13.3333 7.46528 13.2725 7.63049 13.1787 7.736C13.0849 7.84151 12.9687 7.91667 12.7083 7.91667C12.4479 7.91667 12.3317 7.84151 12.238 7.736C12.1442 7.63049 12.0833 7.46528 12.0833 7.29167C12.0833 7.11806 12.1442 6.95284 12.238 6.84733C12.3317 6.74182 12.4479 6.66667 12.7083 6.66667ZM6.79932 10C6.90777 10 7.01472 10.039 7.10205 10.1237C7.10232 10.124 7.10259 10.1242 7.10286 10.1245L9.64762 12.5863L5.86019 16.25H4.79167C4.20907 16.25 3.75 15.7909 3.75 15.2083V12.7808L6.49577 10.1245C6.58448 10.0388 6.69152 10 6.79932 10ZM12.5724 11.6667C12.6828 11.6667 12.7885 11.7051 12.876 11.7896L16.25 15.0537V15.2083C16.25 15.7909 15.7909 16.25 15.2083 16.25H7.65869L12.2697 11.7896C12.3561 11.7059 12.4627 11.6667 12.5724 11.6667Z" fill="black" fill-opacity="0.4" style="fill:black;fill-opacity:0.4;"/>
</svg>
