<svg width="150" height="150" viewBox="0 0 150 150" fill="none" xmlns="http://www.w3.org/2000/svg">
<g clip-path="url(#clip0_9964_3998)">
<path d="M105.356 125.075C105.464 119.236 102.031 114.299 99.5044 109.438C95.5662 102.072 91.4153 94.8012 87.4724 87.4331C84.94 82.8703 82.1911 77.5861 79.9714 73.1199C79.5392 72.2514 79.2418 71.3121 78.8877 70.4178C78.6778 69.9881 78.0716 70.2394 77.6939 70.1795C73.8651 70.2546 70.0045 70.0915 66.4508 68.535C64.2083 67.8114 62.13 66.7221 59.6533 66.793C58.9836 66.8261 58.2438 66.7395 57.4542 66.5375C56.5795 66.5253 53.4861 64.8549 53.1231 65.5935C50.4352 71.8888 50.6163 78.4891 49.616 85.0885C49.3174 87.7098 48.5023 90.7665 46.7646 92.8841C44.6299 95.6133 40.8209 96.2622 37.6005 96.17C33.9202 95.5077 31.9056 92.0479 29.113 90.0001C28.4936 89.4767 27.8494 88.8282 27.0376 88.6287C22.2955 87.6301 20.5805 91.5452 19.7789 95.589C19.3409 99.4219 22.2059 102.844 25.1816 104.907C27.3005 106.571 29.4123 108.322 31.8454 109.41C34.2326 110.556 36.985 112.252 39.5545 112.36C42.8265 112.396 46.1562 112.637 49.1751 111.552C52.3637 110.11 55.5464 108.075 57.7711 105.455C59.8343 103.47 60.9046 100.759 61.8313 98.1182C62.9357 95.0833 64.3363 91.2686 65.2587 87.5278C65.9898 85.6021 65.5326 82.6395 66.9763 81.1809C68.4966 81.6927 69.3341 85.3467 69.9323 87.1953C72.6794 93.3835 77.0244 97.6673 80.0399 103.571C83.0187 109.561 85.6309 115.964 88.8769 121.753C91.0786 125.689 92.3482 130.439 97.8751 130.233C101.054 130.037 106.16 129.479 105.356 125.075ZM113.833 64.3708C113.68 61.3667 113.286 57.8085 110.137 56.2274C108.825 55.3568 104.702 54.5445 103.208 55.6466C103.036 56.9366 105.4 56.5949 106.206 56.7766C107.638 57.092 109.166 57.4417 110.538 57.8936C109.637 57.9986 108.607 57.4103 107.909 57.2521C106.462 56.7535 104.979 56.7811 103.702 56.8461C102.922 56.8856 102.651 57.3856 102.56 57.7981C102.701 58.7251 104.192 58.509 104.858 58.5991C103.896 58.607 102.226 59.9003 104.017 60.166C106.022 60.1385 107.968 60.2523 109.841 60.8553C106.092 59.7186 108.135 61.1956 106.074 63.064C102.231 65.868 97.5885 65.9345 93.6947 63.3889C92.5013 62.4747 91.9564 61.1978 90.6438 59.191C87.0424 53.4926 90.562 57.2707 80.1616 58.3693C79.0526 58.9491 80.8937 61.1053 81.7497 62.5344C83.0292 64.3666 84.1483 66.708 85.6508 68.0797C85.6987 68.2207 86.463 68.5321 86.7783 68.7028C88.1909 70.3423 90.4998 71.6181 92.5685 72.4077C94.7024 73.0569 97.6642 72.8521 99.9857 72.5887C102.83 72.5032 105.648 71.8021 108.069 70.4324C110.649 69.1038 113.742 67.6183 113.833 64.3708Z" fill="white" style="fill:white;fill-opacity:1;"/>
<path d="M99.0594 56.6282C97.4846 55.4114 95.5748 56.0069 93.7685 55.9139C92.522 55.6586 91.2555 57.1428 90.3157 56.4756C90.7787 55.3539 92.1206 55.3125 92.9995 54.6137C94.0536 53.3634 92.5189 53.2424 91.592 53.6297C86.2229 54.9271 88.6777 59.6377 84.2863 60.8298C80.9854 61.769 77.2376 61.9013 73.6889 61.2642C71.4008 60.5253 67.5473 59.3648 66.1145 57.2416C64.4572 54.6095 64.7638 57.9638 61.5964 58.7542C58.9857 60.3829 52.5403 57.8953 54.1434 59.7596C58.4949 64.0279 60.6499 66.8241 66.8403 68.3681C73.0895 70.7749 80.8426 70.9131 86.9521 67.5914C88.548 66.5652 90.4629 65.9517 91.4713 64.2395C91.6964 63.8244 91.9342 63.3751 92.2497 63.0985C93.3924 62.0134 95.511 61.3847 97.2103 61.0054C97.5993 60.8574 98.2202 60.9373 98.3269 60.4365C97.9972 58.8732 94.7055 59.8701 93.5054 59.8199C95.0716 58.989 96.8655 59.3325 98.5218 58.9383C99.8933 57.7395 95.1869 57.5807 94.5213 57.7845C93.906 57.8716 93.3111 58.0492 92.7122 58.1521C93.6196 56.8003 100.088 58.2439 99.0594 56.6283V56.6282ZM84.4426 29.4175C82.0209 25.7377 84.18 25.5312 83.4042 21.9441C83.366 21.6827 83.0422 21.5359 82.8211 21.6841C82.12 22.1246 81.3081 22.2941 80.189 22.2349C79.9735 22.2226 79.7165 22.318 79.5376 22.4761C77.0305 24.3518 72.1939 25.5102 69.2414 23.7583C68.6438 23.4085 67.5916 23.2512 67.2871 24.0095C66.861 25.2073 67.9416 26.7054 69.0533 27.0551C68.8733 29.0333 68.4044 31.1227 67.5456 33.0592C67.2165 33.699 67.5759 33.946 67.8612 34.4129C68.8527 37.0338 75.5127 38.6613 76.426 35.2083C76.4735 34.9136 76.6768 34.5713 76.8325 34.2749C77.4501 32.898 80.0665 34.6407 81.2839 33.119C81.6152 32.7609 81.8838 32.2675 82.1054 31.6103C82.3843 29.8975 84.5902 30.5904 84.4425 29.4175L84.4426 29.4175Z" fill="white" style="fill:white;fill-opacity:1;"/>
<path d="M52.8931 65.0232C51.5661 63.7682 51.1238 62.1459 50.9371 60.4446C50.7101 59.1541 51.1795 57.7185 50.4608 56.5463C47.3576 51.0875 48.1493 44.575 49.9754 38.8282C51.8601 33.9849 59.5517 32.1775 64.2263 32.9674C65.0447 33.0861 65.8611 33.2192 66.6771 33.3534C66.9782 33.403 67.0942 33.2856 67.2305 33.0021C67.6447 32.1412 67.5497 31.507 66.8838 30.727C65.8741 29.5442 65.4702 28.0097 65.0283 26.5257C64.2987 23.8542 65.1128 21.1763 65.9125 18.6408C66.9252 16.1611 70.23 14.2943 72.7904 13.8631C75.342 13.5202 77.8896 13.28 80.3571 14.3678C83.1505 15.5393 86.3354 18.4783 83.9025 21.5128C83.8163 21.5958 83.7934 21.7888 83.8073 21.9239C83.9303 23.0364 84.214 24.163 83.8554 25.2634C83.1673 27.0102 85.5854 28.7776 84.961 29.6608C84.4614 30.3172 83.7273 30.5875 83.0126 30.9003C82.8884 30.9547 82.7563 31.0735 82.704 31.1953C82.4977 31.676 82.336 32.1757 82.1317 32.6574C81.6689 33.7488 80.0314 34.4493 78.8258 34.3034C78.3887 34.2504 77.9148 34.1397 77.5114 34.2504C76.8517 34.4316 77.0674 35.1764 76.8281 35.6432C76.6992 35.8947 76.927 36.0341 77.155 36.1238C79.4248 37.131 81.4876 38.5599 83.4007 40.1389C88.1971 43.4063 89.3797 48.442 90.5509 53.6731C91.4435 53.3719 92.2514 53.1988 93.1389 53.0445C93.7482 53.026 94.094 53.546 93.7743 54.0587C93.1182 55.1552 91.7492 55.3473 90.7733 56.0584L90.8614 56.2602C91.0492 56.2055 91.2703 56.1968 91.4198 56.0891C92.3814 55.4047 94.4513 55.2803 96.485 55.3374C97.6002 55.3402 101.351 55.9021 99.3966 57.4904C100.306 58.6495 99.7925 59.1492 98.5088 59.4757C98.8862 59.7658 99.7511 60.2519 99.0515 60.6149C97.3376 61.5136 95.6072 61.8417 93.6906 62.3772C96.7539 65.5696 105.707 65.6854 106.851 60.5766C105.732 60.5338 104.66 60.4986 103.559 60.5303C102.326 60.5942 102.322 59.5457 103.101 58.8856C102.61 58.7239 101.889 58.7896 101.908 58.1033C101.924 57.4928 102.406 57.0657 103.041 56.782C100.343 55.0599 105.558 54.6204 106.66 54.7384C109.435 54.849 111.717 55.8979 113.286 58.2772C114.428 60.4532 115.025 64.1171 113.861 66.3917C113.622 66.8592 113.616 67.4375 113.181 67.8193C113.004 67.9743 112.861 68.1684 112.684 68.322C108.401 72.0589 102.617 73.2391 97.0851 73.4708C92.2079 73.9109 89.0871 71.8732 85.5676 68.7591C83.7727 69.7421 81.5878 70.228 79.2041 70.4093C82.4668 77.7318 86.8446 84.3215 90.6922 91.3174C93.635 97.6197 97.4968 103.416 100.531 109.676C102.361 113.215 104.895 116.436 105.925 120.342C106.397 122.289 106.674 124.246 106.51 126.256C107.005 129.383 114.312 131.102 116.921 132.253C118.761 132.763 123.109 136.167 119.523 137.36C118.483 137.608 117.413 137.746 116.348 137.871C111.207 138.376 106.067 138.719 100.9 138.402C98.7855 138.35 96.495 137.498 95.6926 135.379C94.9322 133.889 95.1594 132.182 94.6331 130.612C92.5897 129.488 90.926 128.088 89.9039 125.936C86.9966 120.071 84.1509 114.179 81.3225 108.27C79.9785 105.395 78.7114 102.481 76.8799 99.8712C74.8858 96.7154 72.5455 93.7917 70.8673 90.4494C69.1004 87.9342 68.9906 84.6223 67.1401 82.2018C66.968 82.6759 66.7565 83.0325 66.7156 83.4078C66.4665 85.6937 65.9138 87.9129 65.2489 90.1027C64.6121 92.1998 63.9379 94.2875 63.2053 96.3528C61.073 102.454 60.3325 104.527 55.0266 108.606C50.0858 112.294 47.018 113.223 40.865 113.048C39.6174 113.193 38.4357 112.827 37.2223 112.734C34.0041 112.494 31.5493 110.38 28.8261 108.918C26.525 107.19 24.209 105.449 22.0543 103.541C20.3726 102.055 19.8315 99.8604 18.6985 98.0149C15.6177 99.524 12.8159 101.329 9.86429 103.029C7.82977 104.089 5.55458 105.243 3.19038 104.863C1.39766 104.49 3.13687 100.759 3.65334 99.7408C6.33934 95.3273 8.28088 90.3013 12.0651 86.6747C13.7404 85.2015 15.6354 83.3991 18.0663 83.7958C19.611 83.8992 22.7442 88.9037 23.9056 88.312C25.7037 87.6426 27.9316 87.4597 29.3614 88.9358C31.5084 90.7161 33.4692 92.7642 35.6766 94.4581C36.4105 94.9448 37.1892 95.5119 38.1553 95.4637C39.5219 95.3957 40.9268 95.4563 42.2423 95.1495C49.6652 93.0731 48.6192 83.5059 49.6667 77.441C49.9808 74.8412 50.1012 72.2011 50.9951 69.7155C51.5479 68.1023 51.8957 66.451 52.893 65.0233L52.8931 65.0232ZM53.4886 65.7177C51.9633 69.4737 51.1465 73.4042 50.9111 77.4596C49.941 83.6112 50.6448 92.2055 44.1072 95.4027C42.0965 96.4587 39.8348 96.5305 37.6136 96.5519C37.2129 96.5629 36.7721 96.4805 36.4107 96.311C33.3182 94.9706 31.2618 92.1507 28.6524 90.1056C28.1409 89.6641 27.5729 89.1491 26.9509 89.0003C24.9958 88.5327 22.3191 89.3217 21.4117 91.5973C20.8848 92.9186 20.5224 94.3095 20.1521 95.6868C20.028 96.1483 20.0024 96.6897 20.1122 97.1517C21.0166 101.425 23.8482 103.482 27.1304 105.934C28.5811 107.28 30.3073 108.165 32.0267 109.068C34.4415 110.199 36.8717 111.81 39.5796 111.975C42.7056 112.005 46.0415 112.26 49.0338 111.194C51.9265 109.871 54.7619 108.134 56.9464 105.799C59.2553 103.591 60.4797 100.966 61.474 97.9824C62.703 94.598 63.9403 91.2048 64.8179 87.7086C65.4301 85.5932 65.423 83.3614 66.2377 81.3153C67.9339 78.8935 70.1264 85.44 70.3646 86.5458C71.1041 88.9973 72.3824 90.8225 73.6203 92.8813C75.7646 96.4599 78.5724 99.6277 80.391 103.408C82.5318 107.931 84.7109 112.437 86.8043 116.982C88.3871 120.253 90.2602 123.363 91.8667 126.619C94.1982 130.812 99.9933 130.31 103.749 128.501C105.205 127.728 104.966 126.046 104.972 124.659C104.973 123.443 104.8 122.256 104.485 121.076C103.29 116.15 100.233 112.013 98.0568 107.493C96.357 104.152 94.406 100.955 92.5074 97.729C88.1059 88.5675 82.3509 79.9932 78.5332 70.5574C72.8723 70.6623 70.0852 70.4936 64.7837 68.3485C63.1182 67.7838 61.5024 67.0864 59.6744 67.1748C57.4982 67.2362 55.604 66.3308 53.4886 65.7177ZM54.2831 59.3362C56.1031 61.1688 57.9629 62.9615 59.8611 64.7131C60.5898 65.3755 61.4504 65.961 62.3508 66.3516C66.0207 67.6524 69.6674 69.3283 73.6043 69.616C76.6357 69.7303 79.7599 69.6838 82.7184 69.0029C84.1048 68.5112 85.4605 67.9095 86.7753 67.2472C87.8515 66.7051 88.8421 65.9951 89.8854 65.3845C90.44 65.06 90.8254 64.613 91.1298 64.0544C92.3468 61.5096 95.464 61.0908 97.9173 60.4309L97.9604 60.3081C96.548 59.5406 94.9398 60.2154 93.4208 60.209C93.2556 60.2212 93.0809 60.1018 92.9105 60.0433C93.4084 58.5277 97.1089 58.9741 98.4223 58.5652C96.5282 57.8087 94.6005 58.0787 92.7025 58.5409C92.3263 58.5527 92.0363 58.2499 92.3807 57.9104C94.2493 56.5132 96.6736 57.3939 98.8284 56.9369C97.2959 55.7838 95.5049 56.4074 93.7702 56.2966C93.0627 56.3075 92.3992 56.4395 91.7608 56.7899C91.2399 57.1288 89.9974 57.2705 89.9198 56.4257C90.3011 55.1459 91.8318 55.0042 92.785 54.2916C92.8931 54.221 92.9044 54.0026 92.9601 53.8518C92.5206 53.7283 92.1059 53.8993 91.6791 54.0011C89.0092 54.5388 87.9394 56.8064 87.2032 59.174C86.6214 60.2614 85.4957 60.8309 84.4053 61.1921C82.1798 61.9158 79.7698 62.0663 77.4506 61.9459C76.1429 62.0241 74.8266 61.9996 73.5761 61.6308C70.401 60.6344 66.9607 59.5403 65.09 56.5726C62.5137 60.1795 58.2101 60.0163 54.2829 59.3362H54.2831ZM86.8102 68.0898C88.1203 69.9217 90.6342 71.2336 92.6774 72.0373C95.7671 72.9001 99.0157 72.2176 102.154 72.0071C105.4 71.7182 108.156 69.9541 110.906 68.3916C111.79 67.9119 112.496 67.2622 112.855 66.3241C113.093 65.7004 113.507 65.1338 113.452 64.3976C113.352 63.0528 113.249 61.7192 112.935 60.395C111.969 56.2753 107.295 55.0014 103.587 55.7217L103.551 55.8982C104.379 56.4674 105.361 56.2361 106.284 56.3984C107.447 56.6315 108.594 56.9471 109.744 57.2429C110.144 57.3458 110.544 57.467 110.92 57.633C111.025 57.6792 111.046 57.9155 111.105 58.0646C110.819 58.1621 110.503 58.389 110.25 58.3334C109.416 58.1504 108.595 57.8915 107.786 57.613C106.989 57.3075 102.968 56.6411 102.938 57.8783C104.505 58.5298 106.277 58.0879 107.907 58.369C108.771 58.5226 109.607 58.8667 110.432 59.1847C111.262 59.5483 110.004 60.2372 109.532 59.8276C107.864 59.1607 105.037 58.1466 103.602 59.6476C103.742 59.6938 103.882 59.7793 104.022 59.7803C105.648 59.7931 107.275 59.7679 108.862 60.2106C109.401 60.3608 110.004 60.3485 110.425 60.8076C110.081 61.3305 110.086 61.3107 109.544 61.1751C108.95 61.0265 108.345 60.9193 107.747 60.7944C107.421 62.1522 106.71 63.3043 105.467 63.9629C101.769 66.3136 95.9437 66.1902 92.7438 63.0311C92.1288 63.7799 91.8715 64.7712 91.1924 65.407C89.8601 66.5042 88.3607 67.2739 86.8101 68.0896L86.8102 68.0898ZM83.0216 22.0079C82.124 22.572 81.1609 22.6703 80.1648 22.6172C80.0407 22.6106 79.884 22.6778 79.7881 22.7624C77.4786 24.7153 71.619 25.9208 69.013 24.0685C68.7577 23.8845 68.3538 23.8779 68.0141 23.8552C66.9872 24.21 67.9396 26.143 68.6635 26.4252C69.224 26.678 69.4631 27.0952 69.3806 27.6767C69.1018 29.5784 68.6968 31.4591 67.8899 33.2196C67.8278 33.3535 67.7545 33.5722 67.8164 33.6593C69.049 36.1517 71.7675 37.2036 74.4202 36.584C76.0945 36.2991 75.7997 35.3314 76.4882 34.0957C76.8613 33.3852 77.2323 33.2424 78.041 33.3385C82.796 34.1334 80.5523 30.529 83.4102 29.9238C83.6413 29.8938 83.8528 29.7142 84.0967 29.5915C81.4341 25.1263 83.8475 26.2863 83.0215 22.008L83.0216 22.0079ZM86.9433 57.4829C84.856 58.5145 82.7837 59.0719 80.4537 58.9849C80.8041 59.581 81.1082 60.0779 81.3906 60.5868C81.5517 60.8772 81.7851 60.9064 82.071 60.8529C84.4386 60.469 86.3408 60.1954 86.9433 57.4829ZM80.4487 60.9477C79.164 58.0863 79.3215 58.1836 78.2576 61.047L80.4487 60.9477Z" fill="black" style="fill:black;fill-opacity:1;"/>
<path d="M65.147 54.4453C64.9682 51.2987 63.7349 48.2303 62.5181 45.3524C62.408 45.138 62.3158 44.9985 62.5646 44.8428C63.2346 44.2441 63.6959 45.5146 63.9473 45.9829C64.7921 49.0355 66.4017 51.9813 66.2097 55.2137C66.2152 55.5013 65.7175 55.9367 65.4568 55.8498C64.9712 55.5877 65.181 54.9016 65.147 54.4453Z" fill="white" style="fill:white;fill-opacity:1;"/>
</g>
<g clip-path="url(#clip1_9964_3998)">
<path d="M143.887 135.685C145.639 134.225 142.842 116.516 142.842 116.516L97.4288 44.1484C91.3659 44.9615 84.5548 49.6113 82.4531 54.2106L128.536 126.601C128.536 126.601 142.135 137.146 143.887 135.685Z" fill="white" style="fill:white;fill-opacity:1;"/>
<path d="M145.011 130.25C145.051 131.649 145.145 133.048 145.117 134.445C145.086 135.955 143.387 136.907 142.063 136.171C140.811 135.476 139.597 134.709 138.374 133.961C137.151 133.214 135.93 132.463 134.722 131.691C133.368 130.826 132 129.977 130.695 129.043C129.687 128.321 128.732 127.515 127.824 126.671C127.406 126.282 127.149 125.715 126.83 125.222C125.761 123.568 124.696 121.911 123.634 120.253C122.793 118.939 121.961 117.62 121.124 116.303C119.887 114.357 118.635 112.42 117.416 110.462C115.96 108.124 114.544 105.76 113.089 103.422C111.833 101.405 110.543 99.4091 109.274 97.4003C108.484 96.1491 107.712 94.8862 106.918 93.6373C106.151 92.4303 105.364 91.236 104.59 90.0335C103.161 87.8138 101.737 85.5906 100.307 83.3719C99.4281 82.0091 98.5314 80.6581 97.6604 79.2906C96.8228 77.9754 96.0059 76.6468 95.1831 75.3222C94.4953 74.215 93.81 73.1063 93.1273 71.996C92.1525 70.4106 91.1944 68.8148 90.2052 67.2385C88.8039 65.0053 87.3796 62.7865 85.9673 60.5601C84.7239 58.5999 83.486 56.6361 82.2391 54.6781C82.0081 54.3152 81.9759 54.0175 82.1939 53.5911C83.0763 51.8656 84.5629 50.6866 85.9132 49.3929C87.3644 48.0025 88.9538 46.7576 90.7535 45.8544C91.9103 45.2739 93.1691 44.894 94.3881 44.4402C95.0425 44.1967 95.7061 43.9765 96.3723 43.767C96.7451 43.6498 97.1281 43.5429 97.5141 43.5009C97.6476 43.4864 97.8511 43.6504 97.9425 43.7866C98.6603 44.8557 99.3663 45.9328 100.06 47.0175C101.329 49.0002 102.572 50.9991 103.851 52.9745C105.546 55.5911 107.286 58.1785 108.969 60.8026C110.499 63.1885 111.979 65.6065 113.48 68.0108C115.165 70.71 116.838 73.4177 118.538 76.1075C120.579 79.3354 122.645 82.5469 124.696 85.7683C125.902 87.6618 127.118 89.5485 128.292 91.4614C129.088 92.7589 129.794 94.1121 130.585 95.413C131.701 97.2486 132.864 99.0553 133.996 100.882C134.489 101.678 134.941 102.499 135.433 103.296C136.018 104.241 136.63 105.17 137.225 106.109C138.083 107.468 138.944 108.825 139.79 110.191C140.83 111.87 141.8 113.597 142.911 115.227C143.439 116.002 143.589 116.792 143.666 117.67C143.735 118.472 143.948 119.26 144.029 120.062C144.181 121.559 144.265 123.064 144.411 124.562C144.569 126.175 144.767 127.783 144.942 129.394C144.973 129.678 144.98 129.965 144.999 130.251L145.011 130.25L145.011 130.25ZM88.0862 48.5393C88.2059 48.7458 88.2729 48.8717 88.3492 48.9915C90.1407 51.8056 91.9442 54.6119 93.7222 57.4344C95.5274 60.3 97.3103 63.1797 99.0976 66.0566C100.037 67.5694 100.958 69.0943 101.901 70.6049C103.071 72.4796 104.258 74.3442 105.434 76.2149C106.137 77.3325 106.835 78.4536 107.535 79.573C108.252 80.7198 108.974 81.8641 109.686 83.0137C110.616 84.5128 111.533 86.0195 112.466 87.5167C113.324 88.8938 114.202 90.2586 115.059 91.636C116.892 94.58 118.716 97.5297 120.547 100.475C121.915 102.676 123.292 104.872 124.657 107.074C125.807 108.928 126.94 110.792 128.09 112.646C129.372 114.713 130.665 116.774 131.953 118.838C132.838 120.256 133.717 121.677 134.612 123.087C134.714 123.248 134.888 123.435 135.057 123.469C136.359 123.728 137.668 123.953 139.054 124.203C139.448 122.918 139.819 121.726 140.174 120.529C140.209 120.41 140.183 120.235 140.117 120.128C139.016 118.341 137.905 116.56 136.794 114.78C135.75 113.109 134.698 111.443 133.659 109.769C132.611 108.08 131.579 106.382 130.53 104.694C129.162 102.491 127.778 100.298 126.413 98.0934C125.275 96.2571 124.162 94.4055 123.022 92.5707C121.973 90.8828 120.894 89.2136 119.844 87.5265C118.771 85.8013 117.722 84.0603 116.652 82.3334C115.495 80.4683 114.319 78.6151 113.162 76.7501C111.931 74.765 110.718 72.7683 109.486 70.7836C108.153 68.6362 106.801 66.5006 105.469 64.3527C104.288 62.4486 103.128 60.5317 101.95 58.626C100.955 57.0165 99.9319 55.4241 98.9485 53.8075C97.3445 51.1707 95.7504 48.5276 94.1866 45.8669C93.9787 45.5132 93.7937 45.5213 93.5057 45.6343C91.9522 46.2438 90.4156 46.8863 89.0584 47.8853C88.7548 48.1089 88.4328 48.3075 88.0863 48.5395L88.0862 48.5393ZM133.849 126.602C133.895 125.946 133.891 125.322 133.999 124.718C134.075 124.3 133.981 123.978 133.771 123.645C133.363 123 132.968 122.346 132.563 121.699C131.098 119.351 129.627 117.006 128.165 114.656C127.074 112.902 125.997 111.14 124.907 109.385C123.649 107.359 122.383 105.337 121.122 103.311C120.114 101.691 119.105 100.072 118.103 98.4479C117.117 96.8513 116.149 95.2442 115.157 93.6519C114.022 91.8306 112.859 90.0273 111.727 88.204C110.108 85.596 108.512 82.9744 106.898 80.3635C105.569 78.2128 104.227 76.07 102.894 73.9222C101.694 71.9905 100.497 70.057 99.3003 68.1238C97.3823 65.0264 95.4546 61.9351 93.5508 58.829C92.1551 56.5518 90.7952 54.2527 89.4109 51.9685C88.8033 50.9661 88.1743 49.9765 87.5245 48.9318C86.5533 49.8059 85.5702 50.6332 84.6574 51.5318C84.0154 52.1638 83.4539 52.881 82.8936 53.5896C82.7958 53.7132 82.8025 54.0356 82.8962 54.1764C83.838 55.5917 84.8295 56.9739 85.7651 58.3931C87.2856 60.7001 88.7885 63.0186 90.2739 65.3484C91.6067 67.4382 92.9074 69.5486 94.2208 71.6509C95.4824 73.6702 96.7382 75.6932 98.004 77.7099C98.698 78.8154 99.4018 79.9147 100.111 81.0104C101.45 83.0788 102.803 85.1385 104.138 87.2092C105.507 89.3322 106.858 91.4672 108.225 93.5913C109.377 95.3815 110.553 97.1568 111.698 98.9514C112.679 100.489 113.62 102.052 114.601 103.589C115.532 105.05 116.503 106.485 117.433 107.947C117.824 108.561 118.139 109.223 118.514 109.848C119.317 111.185 120.119 112.522 120.953 113.84C122.118 115.679 123.31 117.501 124.493 119.329C125.158 120.358 125.83 121.383 126.492 122.414C127.171 123.471 127.831 124.54 128.526 125.587C128.635 125.752 128.872 125.887 129.072 125.927C129.943 126.103 130.819 126.256 131.699 126.382C132.386 126.48 133.08 126.525 133.849 126.602V126.602ZM94.6915 45.3161C94.9127 45.684 95.123 46.053 95.3514 46.4103C96.851 48.7565 98.3642 51.0941 99.8538 53.4467C101.054 55.342 102.226 57.2552 103.413 59.1588C104.573 61.0202 105.741 62.8773 106.899 64.7403C108.217 66.8612 109.525 68.9889 110.844 71.1092C111.852 72.7303 112.879 74.3403 113.884 75.963C115.116 77.9503 116.328 79.9505 117.562 81.9364C118.68 83.7356 119.822 85.52 120.945 87.3164C122.015 89.0276 123.071 90.7469 124.137 92.4605C125.355 94.4197 126.579 96.3749 127.796 98.3348C129.206 100.605 130.607 102.88 132.017 105.149C133.504 107.542 134.999 109.93 136.486 112.323C137.838 114.498 139.196 116.671 140.524 118.861C140.719 119.182 140.929 119.326 141.288 119.38C141.807 119.458 142.316 119.6 142.837 119.716C142.782 119.248 142.751 118.853 142.685 118.465C142.552 117.689 142.577 116.881 142.112 116.175C141.116 114.665 140.137 113.143 139.176 111.611C137.889 109.559 136.629 107.49 135.35 105.432C134.151 103.502 132.939 101.58 131.742 99.6495C130.612 97.8273 129.496 95.9966 128.37 94.1722C127.528 92.8079 126.673 91.452 125.837 90.0841C125.041 88.7815 124.289 87.4513 123.469 86.1637C122.352 84.4071 121.165 82.6945 120.05 80.9358C118.435 78.3862 116.856 75.8131 115.265 73.2485C113.826 70.9312 112.396 68.6087 110.953 66.2943C109.592 64.1114 108.225 61.9319 106.848 59.7587C105.628 57.8326 104.371 55.9295 103.166 53.9942C101.395 51.1493 99.625 48.3025 97.9262 45.4143C97.5609 44.7933 97.1612 44.6613 96.5553 44.7488C96.4464 44.7645 96.3393 44.798 96.2337 44.8309C95.7393 44.9847 95.2457 45.1413 94.6913 45.316L94.6915 45.3161ZM134.914 124.554C134.877 125.058 134.879 125.52 134.8 125.969C134.712 126.477 134.587 126.986 134.403 127.466C134.339 127.632 134.042 127.829 133.87 127.812C133.208 127.749 132.553 127.606 131.895 127.492C131.416 127.409 130.937 127.324 130.458 127.24L130.378 127.427L139.328 132.987C140.727 131.682 141.989 130.352 143.882 129.941L143.13 121.019L141.005 120.547C140.947 120.729 140.876 120.89 140.845 121.059C140.587 122.466 140.044 123.764 139.314 124.982C139.223 125.135 138.927 125.257 138.737 125.243C138.04 125.192 137.343 125.102 136.655 124.979C136.085 124.876 135.528 124.706 134.914 124.554L134.914 124.554Z" fill="black" style="fill:black;fill-opacity:1;"/>
</g>
<g clip-path="url(#clip2_9964_3998)">
<path d="M113.208 66.5661C113.611 65.5835 114.37 62.4297 113.086 59.3786C111.516 55.6506 107.064 54.5419 103.835 55.3248C102.119 55.7411 103.835 56.6485 103.835 56.6485C102.354 57.4493 102.026 58.2952 103.509 58.7286C102.957 59.5951 102.865 60.0742 104.084 60.2611C104.084 60.2611 108.364 59.8512 109.91 60.8559C111.457 61.8606 113.208 66.5661 113.208 66.5661Z" fill="white" style="fill:white;fill-opacity:1;"/>
<path d="M103.499 55.7976C103.979 56.3689 104.677 56.3023 105.324 56.3874C106.22 56.5051 107.125 56.5774 108.006 56.7634C108.877 56.9473 109.726 57.2369 110.577 57.506C110.805 57.5781 111.257 57.611 111.077 57.9648C110.967 58.1803 110.495 58.3777 110.241 58.3239C109.372 58.1398 108.517 57.87 107.676 57.5795C106.324 57.113 104.937 57.1515 103.547 57.2263C103.137 57.2484 103.052 57.3715 102.856 57.9348C103.264 58.0154 103.66 58.1455 104.061 58.162C104.903 58.1967 105.748 58.1571 106.591 58.1747C107.873 58.2014 109.056 58.6439 110.23 59.098C110.423 59.1726 110.8 59.2371 110.602 59.6195C110.462 59.8914 109.93 60.0442 109.678 59.9161C108.32 59.225 106.882 58.8261 105.355 58.9088C104.828 58.9373 104.308 59.1578 103.795 59.3203C103.687 59.3544 103.62 59.5185 103.534 59.6228C103.668 59.6794 103.799 59.7788 103.935 59.7861C105.18 59.8536 106.432 59.848 107.67 59.9817C108.471 60.0682 109.252 60.3453 110.038 60.5528C110.167 60.5868 110.273 60.7028 110.4 60.7879C110.209 61.381 109.958 61.2879 109.496 61.1678C108.155 60.8198 106.804 60.4791 105.396 60.5167C104.727 60.5345 104.056 60.5379 103.386 60.5161C102.774 60.4961 102.395 60.1611 102.519 59.7488C102.61 59.443 102.8 59.1665 102.966 58.8378C102.556 58.7248 101.837 58.7684 101.852 58.1018C101.865 57.4909 102.362 57.0657 102.995 56.7742C102.777 56.5968 102.591 56.4599 102.422 56.3052C102.096 56.0084 102.115 55.8016 102.455 55.5186C103.067 55.0087 103.819 54.8792 104.562 54.8337C105.611 54.7693 106.684 54.6838 107.715 54.832C110.029 55.1647 111.945 56.2391 113.231 58.265C113.409 58.5471 113.582 58.8512 113.671 59.1692C114.028 60.4415 114.337 61.7137 114.434 63.0523C114.522 64.27 114.283 65.3573 113.794 66.4349C113.704 66.6336 113.595 66.8976 113.541 67.113C113.358 67.609 113.212 67.7187 112.795 67.7249C112.339 66.9728 112.805 66.3705 113.087 65.7882C113.387 65.1669 113.42 64.5549 113.402 63.8932C113.362 62.45 113.201 61.0177 112.679 59.678C111.97 57.8568 110.654 56.6082 108.738 56.0619C108.065 55.87 107.388 55.6064 106.701 55.5656C105.646 55.5029 104.581 55.6042 103.52 55.6359L103.499 55.7974L103.499 55.7976Z" fill="black" style="fill:black;fill-opacity:1;"/>
</g>
<g clip-path="url(#clip3_9964_3998)">
<path d="M85.5938 60.2973C85.5938 60.2973 86.8361 59.8063 87.2448 58.9979C87.6535 58.1894 88.274 55.3377 89.9863 54.5938C91.6986 53.8498 93.3799 53.1483 93.5847 53.6763C93.9384 54.5878 90.5802 55.7027 90.6812 56.3049C90.8076 57.0583 93.7832 55.6106 95.4459 55.7842C97.1087 55.9578 99.2694 55.9826 99.2925 56.6769C99.3156 57.3713 98.548 57.5944 98.548 57.5944C100.04 58.2641 99.0108 58.697 98.002 59.1319C98.8784 59.8229 98.8388 60.3122 98.0268 60.6314C98.0268 60.6314 93.2873 61.4132 92.4434 62.9011C91.5993 64.389 90.0343 65.644 89.3162 66.0752C88.5982 66.5064 85.5938 60.2974 85.5938 60.2974L85.5938 60.2973Z" fill="white" style="fill:white;fill-opacity:1;"/>
<path d="M98.7512 56.6938C98.3016 56.5236 97.8533 56.2125 97.4023 56.2087C95.8881 56.1957 94.3728 56.288 92.8586 56.3533C92.6999 56.3601 92.5446 56.4547 92.3884 56.5107C92.0044 56.6486 91.6277 56.8664 91.2347 56.9014C90.9228 56.9292 90.3297 56.7983 90.2679 56.6379C90.206 56.4774 90.3761 55.9188 90.5814 55.7026C90.8754 55.3929 91.302 55.2007 91.6897 54.991C92.0117 54.8168 92.3666 54.7038 92.6924 54.5356C92.8505 54.4539 92.9892 54.3202 93.1091 54.1855C93.1696 54.1175 93.2202 53.9427 93.1848 53.9078C93.1111 53.8351 92.9694 53.7769 92.8692 53.7936C91.659 53.9963 90.556 54.3852 89.6016 55.2368C88.5574 56.1683 88.1132 57.3889 87.719 58.6358C87.4928 59.3518 87.0441 59.8136 86.4678 60.1981C86.1778 60.3916 85.9236 60.569 85.595 60.6866C85.4365 60.7433 85.1175 60.7935 84.9791 60.6389C84.8407 60.4842 84.8884 60.1503 85.0617 60.0932C85.2351 60.036 85.4318 59.9537 85.595 59.8651C86.3169 59.4735 86.8808 58.9777 87.1031 58.1141C87.7258 55.6953 89.409 54.2804 91.6736 53.4658C92.1582 53.2915 92.6719 53.1756 93.1822 53.1056C93.4042 53.0752 93.7162 53.1625 93.872 53.3144C94.0994 53.5361 94.1323 53.8782 93.8958 54.1504C93.678 54.4011 93.4563 54.6725 93.1796 54.8426C92.7244 55.1222 92.2197 55.3202 91.7431 55.5667C91.4991 55.6929 91.2709 55.8494 91.0355 55.9922L91.109 56.2071C91.3708 56.1602 91.6712 56.1799 91.8873 56.0544C92.6618 55.6046 93.5244 55.5458 94.3706 55.4732C95.3948 55.3855 96.431 55.3382 97.4556 55.3931C98.0616 55.4256 98.6977 55.6027 99.2448 55.8693C100.108 56.29 100.1 56.8017 99.3168 57.3712C99.2822 57.3963 99.2532 57.429 99.1989 57.479C99.3169 57.5472 99.4249 57.5986 99.521 57.6669C99.9406 57.9651 99.9695 58.4176 99.5801 58.7502C99.43 58.8785 99.2579 58.9882 99.0805 59.0754C98.9185 59.155 98.736 59.1927 98.479 59.2759C98.6738 59.4233 98.8251 59.5322 98.9704 59.6487C99.3603 59.9612 99.3625 60.1432 98.9721 60.4281C98.2982 60.9199 97.5041 61.081 96.7111 61.2581C95.3917 61.5526 94.0749 61.8825 92.9976 62.7574C92.7148 62.9871 92.4731 63.3297 92.34 63.6703C91.753 65.1722 90.4405 65.8525 89.1475 66.5538C89.0069 66.63 88.6978 66.609 88.5994 66.5063C88.3776 66.2746 88.6435 65.9617 88.8256 65.8315C89.3486 65.4574 89.8761 65.2473 90.3813 64.8516C90.7231 64.5839 91.1102 64.2812 91.2813 63.9052C91.9311 62.4783 93.0942 61.698 94.4975 61.2154C95.6297 60.8261 96.7872 60.5105 97.9768 60.1489C97.6459 59.8974 97.2708 59.6907 96.8441 59.7164C95.7905 59.78 94.7389 59.8733 93.6905 59.9962C93.4373 60.0257 93.1857 60.0675 93.1407 59.8064C93.115 59.6569 93.2994 59.3995 93.4578 59.3024C94.2212 58.8346 95.0947 58.7159 95.9633 58.6282C96.6644 58.5574 97.3719 58.5515 98.0761 58.5084C98.2053 58.5005 98.3321 58.4524 98.4599 58.4228L98.468 58.2704C97.7981 58.1644 97.1316 58.0214 96.4578 57.9605C95.2547 57.8517 94.0789 58.0351 92.9213 58.3755C92.7967 58.4121 92.5293 58.3089 92.4613 58.1927C92.3933 58.0765 92.553 57.8393 92.6673 57.7544C93.7183 56.9737 94.9498 56.937 96.1878 56.9427C96.7883 56.9454 97.389 56.9573 97.9893 56.9482C98.2298 56.9446 98.4697 56.8957 98.7099 56.8673L98.7512 56.6936V56.6938Z" fill="black" style="fill:black;fill-opacity:1;"/>
</g>
<g clip-path="url(#clip4_9964_3998)">
<path d="M144.823 135.75C143.815 137.997 128.669 138.335 125.569 138.543C113.528 139.259 101.507 138.63 89.4681 138.319C82.3999 138.186 75.3395 138.803 68.2713 138.556C59.7546 138.549 51.2403 139.045 42.7253 138.857C34.0748 138.082 25.19 138.889 16.6484 137.719C16.8396 136.211 24.8472 137.468 26.4595 137.224C32.1644 137.081 37.8424 137.561 43.5421 137.612C54.0363 137.845 64.5348 137.157 75.0336 137.349C85.3987 136.951 95.7488 136.987 106.108 137.521C119.053 137.925 131.974 137.158 144.823 135.75Z" fill="black" style="fill:black;fill-opacity:1;"/>
</g>
<defs>
<clipPath id="clip0_9964_3998">
<rect width="118.5" height="124.95" fill="white" style="fill:white;fill-opacity:1;" transform="translate(2.39844 13.5742)"/>
</clipPath>
<clipPath id="clip1_9964_3998">
<rect width="63.075" height="92.925" fill="white" style="fill:white;fill-opacity:1;" transform="translate(82.0469 43.5)"/>
</clipPath>
<clipPath id="clip2_9964_3998">
<rect width="12.6" height="12.975" fill="white" style="fill:white;fill-opacity:1;" transform="translate(101.852 54.75)"/>
</clipPath>
<clipPath id="clip3_9964_3998">
<rect width="15" height="13.5" fill="white" style="fill:white;fill-opacity:1;" transform="translate(84.8984 53.0996)"/>
</clipPath>
<clipPath id="clip4_9964_3998">
<rect width="128.175" height="3.15" fill="white" style="fill:white;fill-opacity:1;" transform="translate(16.6484 135.75)"/>
</clipPath>
</defs>
</svg>
