<svg width="80" height="80" viewBox="0 0 80 80" fill="none" xmlns="http://www.w3.org/2000/svg">
<path d="M41.5654 48.7461C48.6604 48.7461 54.4121 42.9944 54.4121 35.8994C54.4121 28.8044 48.6604 23.0527 41.5654 23.0527C34.4704 23.0527 28.7188 28.8044 28.7188 35.8994C28.7188 42.9944 34.4704 48.7461 41.5654 48.7461Z" fill="#210309" style="fill:#210309;fill:color(display-p3 0.1294 0.0118 0.0353);fill-opacity:1;"/>
<path d="M42.8022 39.0328C43.3972 40.0861 49.2555 41.8061 55.0105 49.8361C58.0822 54.1211 59.7139 56.0478 59.7139 59.3744C59.7139 63.8511 55.0105 72.5128 43.2039 72.5128C31.8472 72.5128 25.2422 64.2978 25.2422 61.9528C25.2422 57.6711 27.0439 49.8361 30.3955 46.1861C33.5039 42.8028 40.4489 41.1411 40.4072 38.5128C40.3905 37.4394 39.3505 36.4578 39.3505 36.4578L42.6455 36.2461C42.6455 36.2461 41.7889 37.2444 42.8022 39.0328Z" fill="url(#paint0_radial_9964_4059)" style=""/>
<path d="M42.8022 39.0328C43.3972 40.0861 49.2555 41.8061 55.0105 49.8361C58.0822 54.1211 59.7139 56.0478 59.7139 59.3744C59.7139 63.8511 55.0105 72.5128 43.2039 72.5128C31.8472 72.5128 25.2422 64.2978 25.2422 61.9528C25.2422 57.6711 27.0439 49.8361 30.3955 46.1861C33.5039 42.8028 40.4489 41.1411 40.4072 38.5128C40.3905 37.4394 39.3505 36.4578 39.3505 36.4578L42.6455 36.2461C42.6455 36.2461 41.7889 37.2444 42.8022 39.0328Z" fill="url(#paint1_radial_9964_4059)" style=""/>
<path d="M25.2422 61.9524C25.2422 57.6708 27.0439 49.8358 30.3955 46.1858C32.5522 43.8391 36.5539 42.3191 38.7905 40.7324C36.2939 49.9824 35.1272 54.5974 25.2422 61.9524Z" fill="url(#paint2_radial_9964_4059)" style=""/>
<path d="M38.2811 37.7481C37.4111 38.6564 37.5278 43.1014 31.0061 50.9898C27.5244 55.1998 25.6711 57.3614 22.3194 58.2931C17.8078 59.5481 9.75942 57.7398 6.99275 49.4964C3.31609 38.5431 8.28275 31.0081 10.6444 30.3514C14.9594 29.1514 23.2744 28.8214 28.6828 30.6831C33.4461 32.3231 36.1894 35.9998 38.8511 35.3131C41.5128 34.6264 41.1128 34.5231 41.1128 34.5231L41.7444 37.5581C41.7444 37.5581 39.7044 36.2631 38.2811 37.7481Z" fill="url(#paint3_radial_9964_4059)" style=""/>
<path d="M10.6406 30.3514C14.9556 29.1514 23.2706 28.8214 28.679 30.6831C31.0606 31.5031 32.9373 32.8331 34.5506 33.8714C30.4623 37.0698 19.0956 38.0364 10.6406 30.3514Z" fill="url(#paint4_radial_9964_4059)" style=""/>
<path d="M38.0858 33.7332C35.5741 32.7632 36.2858 34.1298 26.0141 33.7348C20.8491 33.5365 16.5925 29.9265 14.0941 28.0532C10.1225 25.0748 10.9058 15.1665 18.0291 11.3265C27.1675 6.39984 34.3225 7.38318 35.5908 9.18151C37.9075 12.4648 40.4091 19.3515 40.4725 24.2832C40.5291 28.6282 39.9075 32.2532 40.7308 33.6465C41.1725 34.3932 42.3941 34.6648 42.3941 34.6648L39.8491 36.6665C39.8491 36.6665 39.8325 34.4082 38.0858 33.7332Z" fill="url(#paint5_radial_9964_4059)" style=""/>
<path d="M35.591 9.18164C37.9076 12.465 40.4093 19.3516 40.4726 24.2833C40.501 26.4566 40.3593 28.4483 40.3143 30.0716C39.171 29.8933 29.0126 19.4116 35.591 9.18164Z" fill="url(#paint6_radial_9964_4059)" style=""/>
<path d="M41.7407 32.8106C41.9257 28.8989 40.5323 30.7156 37.834 20.7973C36.4773 15.8089 38.739 12.4956 38.5673 8.50395C38.5007 6.95728 52.1723 5.00228 58.2207 10.8689C65.9057 18.3239 67.0473 22.0939 65.7123 23.8406C63.2723 27.0339 57.4223 30.6706 52.7357 32.2089C48.6057 33.5639 44.584 33.6673 43.5007 34.8706C42.9207 35.5156 41.8523 36.7039 41.8523 36.7039L40.0523 35.3806C40.0523 35.3806 41.639 34.9406 41.7407 32.8106Z" fill="url(#paint7_radial_9964_4059)" style=""/>
<path d="M65.7031 23.8401C63.2631 27.0334 57.4131 30.6701 52.7265 32.2084C51.0065 32.7718 49.3065 33.1201 47.8281 33.4201C49.8815 25.0168 64.7565 22.5484 65.7031 23.8401Z" fill="url(#paint8_radial_9964_4059)" style=""/>
<path d="M67.164 26.0716C64.6623 26.0082 61.2073 25.1449 54.7323 29.2899C50.3356 32.1032 48.5273 34.2999 46.649 35.2399C45.2656 35.9332 44.034 35.3083 43.459 34.9116C43.2223 35.1749 42.919 35.5116 42.634 35.8283L42.4623 36.2566L42.6406 36.2449C42.6406 36.2449 42.4906 36.4333 42.3906 36.7749C42.7306 36.9516 43.8206 37.5166 44.4656 37.8516C45.3306 38.3016 46.0806 39.8899 47.049 41.8749C49.2956 43.4416 52.1623 45.8666 55.0056 49.8333C56.7556 52.2766 58.0206 53.9483 58.8006 55.5549C59.4606 55.9649 60.1073 56.3316 60.714 56.5866C62.7406 57.4416 71.424 56.5916 73.444 46.0766C75.9273 33.1633 68.7123 26.1099 67.164 26.0716Z" fill="url(#paint9_radial_9964_4059)" style=""/>
<path d="M45.7188 39.2891C46.1354 39.9907 46.5654 40.8841 47.0504 41.8757C49.2971 43.4424 52.1638 45.8674 55.0071 49.8341C56.7571 52.2774 58.0221 53.9491 58.8021 55.5557C59.4621 55.9657 60.1088 56.3324 60.7154 56.5874C61.4521 55.7424 57.1304 39.7191 45.7188 39.2891Z" fill="url(#paint10_radial_9964_4059)" style=""/>
<path d="M38.3222 33.5878C37.0706 32.3962 32.4672 31.6545 27.2706 30.1095C27.0639 30.0478 20.4706 29.4412 20.2639 29.3778C19.9039 29.2678 25.9289 29.6978 25.5656 29.5778C22.0222 28.4178 18.3472 26.8362 15.3706 24.4578C15.1222 24.2595 18.9822 27.6345 29.1456 30.2462C29.4289 30.3195 25.3572 27.0212 25.6506 27.0928C25.9856 27.1745 30.6839 30.6245 31.0322 30.7045C32.3872 31.0162 33.8406 31.3112 35.3972 31.5812C35.0756 31.2245 32.6956 29.3862 29.3439 26.8612C29.1789 26.7362 21.2272 23.6278 21.0589 23.5012C20.8456 23.3412 27.9956 25.8612 27.7789 25.6995C22.5239 21.7478 16.4956 17.2662 16.5189 17.1928C16.5722 17.0328 20.0139 19.5428 22.4956 21.3462C22.6939 21.4895 19.2639 16.7078 19.4689 16.8578C19.6439 16.9862 23.7522 22.1112 23.9322 22.2445C28.9989 25.9628 33.9389 29.8728 34.7356 30.4545C36.6422 31.9178 37.4322 31.7028 37.0956 31.3278C36.2272 30.6445 34.3772 28.7162 32.2239 26.3528C32.1089 26.2262 25.4256 21.6312 25.3089 21.5012C25.1372 21.3128 31.5322 25.5895 31.3572 25.3962C26.5172 20.0278 20.6556 13.1095 20.7639 13.0478C20.8272 13.0128 26.6222 19.5695 29.2872 22.5528C29.3939 22.6712 25.0272 14.7228 25.1356 14.8445C25.2322 14.9528 30.2639 23.6178 30.3622 23.7278C34.5839 28.4512 35.8039 29.7445 37.4789 31.1162C36.5539 29.4912 35.4106 27.3995 34.2239 25.1912C34.1422 25.0378 30.3639 21.4362 30.2806 21.2812C30.1439 21.0262 33.7022 24.2178 33.5656 23.9612C30.6372 18.4745 27.6572 12.6678 27.2506 11.6578C27.3306 11.6545 29.6089 15.8012 31.8289 19.8678C31.9039 20.0045 30.1506 12.2862 30.2256 12.4245C30.3189 12.5945 32.6556 20.9928 32.7489 21.1645C35.5689 26.3312 37.8856 30.9662 38.0656 30.9278C38.2606 30.8862 37.9289 30.0728 36.7639 25.8012C36.7372 25.7062 33.7289 20.3962 33.7039 20.3012C33.6506 20.1028 36.3706 24.4295 36.3172 24.2312C35.5639 21.4495 33.6406 12.9795 33.3906 11.4678C33.3539 11.2428 34.6539 16.5728 35.5956 20.0462C35.6356 20.1912 35.7389 16.3328 35.7789 16.4812C35.8156 16.6128 36.0156 21.4478 36.0522 21.5828C37.4989 26.8912 39.4106 33.0028 40.1889 34.2178C40.6206 34.8912 40.7106 35.9028 40.7106 35.9028L39.9272 36.5028C39.6739 35.4395 39.1022 34.3295 38.3222 33.5878Z" fill="url(#paint11_radial_9964_4059)" style=""/>
<path d="M37.5394 36.9622C35.9811 37.7088 33.6561 41.7505 30.3677 46.0622C30.2377 46.2322 27.3311 52.1822 27.1977 52.3538C26.9661 52.6505 29.5061 47.1705 29.2661 47.4672C26.9244 50.3688 24.1427 53.2438 20.8644 55.1838C20.5911 55.3455 25.1144 52.9322 31.1627 44.3572C31.3311 44.1188 26.8044 46.7555 26.9744 46.5072C27.1694 46.2238 32.0611 43.0522 32.2594 42.7555C33.0311 41.5988 33.8227 40.3438 34.6277 38.9855C34.1811 39.1588 31.6177 40.7338 28.0677 42.9722C27.8927 43.0822 22.1661 49.4155 21.9877 49.5272C21.7627 49.6688 26.6544 43.8788 26.4261 44.0238C20.8677 47.5372 14.5394 51.5838 14.4794 51.5355C14.3477 51.4288 17.9161 49.1005 20.4827 47.4205C20.6877 47.2872 14.9994 48.7972 15.2127 48.6588C15.3944 48.5405 21.6444 46.5172 21.8311 46.3955C27.1044 42.9755 32.5127 39.7438 33.3377 39.2055C35.3827 37.9422 35.4611 37.1255 34.9911 37.3088C34.0444 37.8788 31.5844 38.9238 28.6111 40.0988C28.4511 40.1622 21.7844 44.7805 21.6227 44.8438C21.3861 44.9372 27.6527 40.4755 27.4111 40.5688C20.6761 43.1905 12.1277 46.2172 12.1094 46.0955C12.0977 46.0238 20.2844 42.9305 24.0194 41.4972C24.1677 41.4405 15.1877 42.7038 15.3394 42.6455C15.4744 42.5938 25.3627 40.9605 25.4994 40.9088C31.4127 38.6372 33.0544 37.9538 34.9311 36.8755C33.0827 37.1638 30.7227 37.4922 28.2377 37.8172C28.0644 37.8405 23.3577 40.0955 23.1844 40.1172C22.8977 40.1538 27.1444 37.9588 26.8544 37.9972C20.6861 38.7888 14.1994 39.5172 13.1111 39.5372C13.1361 39.4605 17.8227 38.8005 22.4111 38.1688C22.5661 38.1472 14.7261 37.0488 14.8827 37.0272C15.0761 37.0005 23.7561 37.7938 23.9494 37.7672C29.7811 36.9622 34.9361 36.4405 34.9644 36.2588C34.9944 36.0622 34.1161 36.0838 29.7094 35.6588C29.6111 35.6488 23.5794 36.5788 23.4827 36.5705C23.2794 36.5505 28.2877 35.5405 28.0844 35.5205C25.2161 35.2372 16.6144 34.0322 15.1127 33.7305C14.8894 33.6855 20.3327 34.3605 23.9144 34.7105C24.0644 34.7255 20.4944 33.2605 20.6461 33.2755C20.7827 33.2888 25.3744 34.8155 25.5127 34.8288C30.9894 35.3572 37.3827 35.7388 38.7927 35.4422C39.5761 35.2772 40.5527 35.5522 40.5527 35.5522L40.8361 36.4972C39.7511 36.3555 38.5111 36.4955 37.5394 36.9622Z" fill="url(#paint12_radial_9964_4059)" style=""/>
<path d="M41.707 40.4475C42.0353 42.1442 45.357 45.4175 48.6953 49.6875C48.827 49.8575 53.8487 54.1742 53.9803 54.3459C54.2087 54.6442 49.5487 50.8009 49.7753 51.1075C51.9903 54.1075 54.067 57.5259 55.1153 61.1892C55.202 61.4942 54.0137 56.5075 47.247 48.4859C47.0587 48.2625 48.4637 53.3092 48.267 53.0809C48.042 52.8209 46.212 47.2842 45.9753 47.0175C45.052 45.9792 44.0387 44.8959 42.927 43.7725C42.982 44.2492 43.857 47.1275 45.1237 51.1275C45.187 51.3242 49.8637 58.4675 49.927 58.6692C50.007 58.9225 45.6437 52.7259 45.7253 52.9825C47.717 59.2492 50.0303 66.3959 49.9687 66.4409C49.832 66.5409 48.4837 62.4992 47.507 59.5925C47.4287 59.3609 47.452 65.2459 47.3703 65.0042C47.302 64.7975 46.927 58.2409 46.857 58.0275C44.8837 52.0609 43.1253 46.0109 42.8137 45.0759C42.1087 42.7775 41.3387 42.4959 41.397 42.9959C41.7087 44.0559 42.097 46.6992 42.482 49.8742C42.502 50.0442 45.2837 57.6625 45.3037 57.8359C45.3337 58.0892 42.6037 50.8975 42.6337 51.1542C43.4653 58.3342 44.2303 67.3709 44.107 67.3575C44.0353 67.3492 43.1137 58.6475 42.672 54.6709C42.6537 54.5125 41.6037 63.5209 41.587 63.3592C41.5703 63.2159 42.4937 53.2359 42.4787 53.0909C41.777 46.7942 41.5337 45.0342 40.9637 42.9442C40.7737 44.8042 40.4953 47.1709 40.1803 49.6575C40.1587 49.8309 41.1487 54.9559 41.127 55.1292C41.0903 55.4159 40.042 50.7525 40.0037 51.0409C39.2087 57.2092 38.272 63.6675 38.0153 64.7259C37.9487 64.6825 38.4953 59.9825 39.0453 55.3809C39.0637 55.2259 36.017 62.5309 36.0353 62.3759C36.0587 62.1825 39.0237 53.9859 39.047 53.7909C39.7437 47.9459 40.5453 42.8259 40.3753 42.7525C40.192 42.6742 39.992 43.5292 38.4637 47.6842C38.4303 47.7759 37.8037 53.8475 37.7687 53.9392C37.697 54.1309 37.9887 49.0292 37.917 49.2209C36.917 51.9242 33.5753 59.9409 32.902 61.3175C32.802 61.5225 34.832 56.4259 36.0787 53.0509C36.1303 52.9092 33.8103 55.9925 33.862 55.8492C33.9087 55.7209 36.5487 51.6642 36.597 51.5342C38.4953 46.3692 40.482 40.2809 40.552 38.8409C40.5903 38.0425 41.1037 37.1659 41.1037 37.1659L42.0903 37.1309C41.6803 38.1542 41.502 39.3892 41.707 40.4475Z" fill="url(#paint13_radial_9964_4059)" style=""/>
<path d="M44.5355 37.2411C46.2489 37.4645 50.4022 35.3445 55.5089 33.5228C55.7105 33.4511 61.3922 30.0478 61.5972 29.9761C61.9522 29.8528 56.8355 33.0628 57.1989 32.9445C60.7439 31.7895 64.6439 30.8961 68.4505 31.0561C68.7672 31.0695 63.6605 30.6261 53.9139 34.5161C53.6422 34.6245 58.8755 34.8828 58.5972 34.9978C58.2789 35.1295 52.4489 35.1195 52.1205 35.2611C50.8439 35.8095 49.4955 36.4295 48.0789 37.1295C48.5489 37.2278 51.5555 37.3061 55.7505 37.3645C55.9572 37.3678 64.2105 35.1828 64.4205 35.1845C64.6872 35.1878 57.4289 37.3745 57.6989 37.3778C64.2739 37.4645 71.7855 37.5211 71.8089 37.5961C71.8605 37.7578 67.6005 37.7628 64.5322 37.7711C64.2872 37.7711 69.8789 39.6061 69.6255 39.6078C69.4089 39.6078 63.0672 37.8961 62.8439 37.8961C56.5589 37.8861 50.2622 37.6461 49.2789 37.6478C46.8755 37.5911 46.3655 38.2328 46.8589 38.3361C47.9622 38.3745 50.5939 38.8395 53.7272 39.4761C53.8955 39.5095 62.0022 39.2745 62.1739 39.3095C62.4239 39.3611 54.7372 39.6845 54.9922 39.7361C62.0689 41.2111 70.8839 43.3345 70.8322 43.4478C70.8022 43.5128 62.2539 41.6428 58.3405 40.8078C58.1839 40.7745 66.4022 44.6111 66.2439 44.5778C66.1022 44.5478 56.9239 40.5245 56.7805 40.4945C50.5855 39.1745 48.8355 38.8511 46.6739 38.7311C48.3789 39.4978 50.5372 40.5095 52.7989 41.5911C52.9555 41.6661 58.1322 42.3428 58.2905 42.4195C58.5505 42.5445 53.7955 42.0695 54.0572 42.1961C59.6605 44.8961 65.4939 47.8228 66.4172 48.3978C66.3555 48.4478 62.0672 46.4461 57.8739 44.4745C57.7322 44.4078 63.7055 49.6028 63.5622 49.5361C63.3855 49.4528 56.5422 44.0545 56.3655 43.9711C51.0389 41.4661 46.4339 39.0928 46.3105 39.2295C46.1772 39.3778 46.9255 39.8378 50.3889 42.5978C50.4655 42.6595 56.0289 45.1678 56.1055 45.2295C56.2655 45.3578 51.5155 43.4728 51.6755 43.6011C53.9255 45.4028 60.4789 51.1028 61.5739 52.1745C61.7372 52.3345 57.5405 48.7995 54.7305 46.5528C54.6139 46.4595 56.8072 49.6345 56.6872 49.5378C56.5805 49.4528 53.5639 45.6678 53.4555 45.5811C49.1539 42.1511 44.0022 38.3461 42.6572 37.8245C41.9122 37.5361 41.2422 36.7728 41.2422 36.7728L41.5205 35.8261C42.3505 36.5428 43.4655 37.1011 44.5355 37.2411Z" fill="url(#paint14_radial_9964_4059)" style=""/>
<path d="M42.6784 34.6312C43.3134 33.0246 42.2734 28.4779 41.7551 23.0829C41.7351 22.8696 39.8234 16.5296 39.8051 16.3129C39.7734 15.9379 41.6351 21.6846 41.6084 21.3029C41.3551 17.5829 41.4418 13.5829 42.5284 9.93122C42.6184 9.62622 40.9401 14.4712 42.3318 24.8712C42.3701 25.1612 43.8984 20.1496 43.9434 20.4479C43.9934 20.7896 42.5584 26.4396 42.6151 26.7912C42.8351 28.1629 43.1068 29.6212 43.4401 31.1662C43.6501 30.7346 44.4601 27.8379 45.5434 23.7846C45.5968 23.5846 45.4951 15.0479 45.5501 14.8446C45.6184 14.5862 45.9651 22.1596 46.0334 21.8979C47.7234 15.5446 49.6168 8.27456 49.6934 8.26956C49.8618 8.25789 48.8268 12.3912 48.0851 15.3679C48.0268 15.6046 51.1718 10.6312 51.1101 10.8779C51.0568 11.0879 47.8468 16.8196 47.7918 17.0362C46.2468 23.1279 44.4751 29.1746 44.2351 30.1296C43.5934 32.4462 44.0901 33.0979 44.3101 32.6446C44.6168 31.5829 45.7118 29.1446 47.0951 26.2629C47.1701 26.1079 48.9218 18.1896 48.9968 18.0329C49.1068 17.8046 47.5418 25.3346 47.6551 25.1012C50.8151 18.5996 55.0284 10.5712 55.1268 10.6479C55.1834 10.6929 51.2801 18.5246 49.5134 22.1146C49.4434 22.2579 55.1718 15.2279 55.1018 15.3729C55.0384 15.5029 48.8934 23.4196 48.8284 23.5512C46.0334 29.2362 45.2934 30.8529 44.6484 32.9196C45.8084 31.4529 47.3168 29.6079 48.9184 27.6796C49.0301 27.5462 50.9518 22.6929 51.0634 22.5579C51.2484 22.3362 49.6251 26.8312 49.8118 26.6079C53.7984 21.8346 58.0634 16.8929 58.8468 16.1379C58.8801 16.2112 55.8901 19.8796 52.9534 23.4629C52.8551 23.5846 59.3518 19.0629 59.2518 19.1846C59.1284 19.3346 52.2201 24.6512 52.0968 24.8029C48.3668 29.3562 44.9384 33.2412 45.0418 33.3946C45.1534 33.5596 45.7834 32.9462 49.3051 30.2646C49.3834 30.2046 53.1768 25.4246 53.2551 25.3646C53.4184 25.2412 50.4301 29.3862 50.5934 29.2629C52.8901 27.5212 60.0184 22.5612 61.3268 21.7612C61.5218 21.6429 57.0684 24.8479 54.2034 27.0229C54.0834 27.1146 57.6984 25.7629 57.5768 25.8546C57.4684 25.9379 53.0618 27.9379 52.9501 28.0212C48.5734 31.3546 43.6234 35.4196 42.7901 36.5962C42.3284 37.2479 41.4234 37.7112 41.4234 37.7112L40.5734 37.2112C41.4684 36.5796 42.2818 35.6329 42.6784 34.6312Z" fill="url(#paint15_radial_9964_4059)" style=""/>
<path d="M40.1958 34.8206C40.6224 34.234 41.2524 33.2123 42.3608 31.9673C46.3358 27.5073 48.7274 23.4223 49.0374 22.8606C49.3474 22.299 48.1608 20.319 48.1608 20.319L49.1258 19.9406C49.1258 19.9406 49.7041 21.844 49.9458 21.8806C50.1858 21.919 51.5041 19.5156 51.5041 19.5156L52.4924 19.6823C52.4924 19.6823 50.4591 22.494 50.5658 22.7573C50.6724 23.0206 53.5308 21.294 53.5308 21.294L53.7591 22.0173C53.7591 22.0173 50.9624 23.084 50.1808 24.089C49.3991 25.094 44.0941 33.2723 43.2391 35.3006C42.8074 36.3256 41.7974 37.2756 40.8891 36.849C39.9824 36.4223 39.7691 35.4073 40.1958 34.8206Z" fill="url(#paint16_radial_9964_4059)" style=""/>
<path d="M48.3307 28.3333C49.2512 28.3333 49.9974 27.5871 49.9974 26.6667C49.9974 25.7462 49.2512 25 48.3307 25C47.4103 25 46.6641 25.7462 46.6641 26.6667C46.6641 27.5871 47.4103 28.3333 48.3307 28.3333Z" fill="url(#paint17_radial_9964_4059)" style=""/>
<path d="M51.6667 26.6673C52.5871 26.6673 53.3333 25.9211 53.3333 25.0007C53.3333 24.0802 52.5871 23.334 51.6667 23.334C50.7462 23.334 50 24.0802 50 25.0007C50 25.9211 50.7462 26.6673 51.6667 26.6673Z" fill="url(#paint18_radial_9964_4059)" style=""/>
<path d="M48.3307 24.9993C49.2512 24.9993 49.9974 24.2532 49.9974 23.3327C49.9974 22.4122 49.2512 21.666 48.3307 21.666C47.4103 21.666 46.6641 22.4122 46.6641 23.3327C46.6641 24.2532 47.4103 24.9993 48.3307 24.9993Z" fill="url(#paint19_radial_9964_4059)" style=""/>
<path d="M48.3307 21.6673C49.2512 21.6673 49.9974 20.9211 49.9974 20.0007C49.9974 19.0802 49.2512 18.334 48.3307 18.334C47.4103 18.334 46.6641 19.0802 46.6641 20.0007C46.6641 20.9211 47.4103 21.6673 48.3307 21.6673Z" fill="url(#paint20_radial_9964_4059)" style=""/>
<path d="M51.6667 21.6673C52.5871 21.6673 53.3333 20.9211 53.3333 20.0007C53.3333 19.0802 52.5871 18.334 51.6667 18.334C50.7462 18.334 50 19.0802 50 20.0007C50 20.9211 50.7462 21.6673 51.6667 21.6673Z" fill="url(#paint21_radial_9964_4059)" style=""/>
<path d="M53.3307 23.3333C54.2512 23.3333 54.9974 22.5871 54.9974 21.6667C54.9974 20.7462 54.2512 20 53.3307 20C52.4103 20 51.6641 20.7462 51.6641 21.6667C51.6641 22.5871 52.4103 23.3333 53.3307 23.3333Z" fill="url(#paint22_radial_9964_4059)" style=""/>
<path d="M50.0026 23.3333C50.9231 23.3333 51.6693 22.5871 51.6693 21.6667C51.6693 20.7462 50.9231 20 50.0026 20C49.0821 20 48.3359 20.7462 48.3359 21.6667C48.3359 22.5871 49.0821 23.3333 50.0026 23.3333Z" fill="url(#paint23_radial_9964_4059)" style=""/>
<path d="M46.6667 26.6673C47.5871 26.6673 48.3333 25.9211 48.3333 25.0007C48.3333 24.0802 47.5871 23.334 46.6667 23.334C45.7462 23.334 45 24.0802 45 25.0007C45 25.9211 45.7462 26.6673 46.6667 26.6673Z" fill="url(#paint24_radial_9964_4059)" style=""/>
<defs>
<radialGradient id="paint0_radial_9964_4059" cx="0" cy="0" r="1" gradientUnits="userSpaceOnUse" gradientTransform="translate(41.3447 37.4067) scale(34.4083 33.4667)">
<stop stop-color="#7A0E1E" style="stop-color:#7A0E1E;stop-color:color(display-p3 0.4784 0.0549 0.1176);stop-opacity:1;"/>
<stop offset="0.161" stop-color="#C71631" style="stop-color:#C71631;stop-color:color(display-p3 0.7804 0.0863 0.1922);stop-opacity:1;"/>
<stop offset="0.317" stop-color="#E85A8E" style="stop-color:#E85A8E;stop-color:color(display-p3 0.9098 0.3529 0.5569);stop-opacity:1;"/>
<stop offset="0.328" stop-color="#EA5D91" style="stop-color:#EA5D91;stop-color:color(display-p3 0.9176 0.3647 0.5686);stop-opacity:1;"/>
<stop offset="0.443" stop-color="#F974A8" style="stop-color:#F974A8;stop-color:color(display-p3 0.9765 0.4549 0.6588);stop-opacity:1;"/>
<stop offset="0.515" stop-color="#FF7DB1" style="stop-color:#FF7DB1;stop-color:color(display-p3 1.0000 0.4902 0.6941);stop-opacity:1;"/>
<stop offset="0.684" stop-color="#FF91C0" style="stop-color:#FF91C0;stop-color:color(display-p3 1.0000 0.5686 0.7529);stop-opacity:1;"/>
<stop offset="1" stop-color="#FFC0E3" style="stop-color:#FFC0E3;stop-color:color(display-p3 1.0000 0.7529 0.8902);stop-opacity:1;"/>
</radialGradient>
<radialGradient id="paint1_radial_9964_4059" cx="0" cy="0" r="1" gradientUnits="userSpaceOnUse" gradientTransform="translate(41.3447 37.4067) scale(34.4083 33.4667)">
<stop offset="0.147" stop-color="#590A16" style="stop-color:#590A16;stop-color:color(display-p3 0.3490 0.0392 0.0863);stop-opacity:1;"/>
<stop offset="0.259" stop-color="#B52339" style="stop-color:#B52339;stop-color:color(display-p3 0.7098 0.1373 0.2235);stop-opacity:1;"/>
<stop offset="0.395" stop-color="#E85A8E" style="stop-color:#E85A8E;stop-color:color(display-p3 0.9098 0.3529 0.5569);stop-opacity:1;"/>
<stop offset="0.401" stop-color="#EA5D91" style="stop-color:#EA5D91;stop-color:color(display-p3 0.9176 0.3647 0.5686);stop-opacity:1;"/>
<stop offset="0.471" stop-color="#F974A8" style="stop-color:#F974A8;stop-color:color(display-p3 0.9765 0.4549 0.6588);stop-opacity:1;"/>
<stop offset="0.515" stop-color="#FF7DB1" style="stop-color:#FF7DB1;stop-color:color(display-p3 1.0000 0.4902 0.6941);stop-opacity:1;"/>
<stop offset="0.684" stop-color="#FF91C0" style="stop-color:#FF91C0;stop-color:color(display-p3 1.0000 0.5686 0.7529);stop-opacity:1;"/>
<stop offset="1" stop-color="#FFC0E3" style="stop-color:#FFC0E3;stop-color:color(display-p3 1.0000 0.7529 0.8902);stop-opacity:1;"/>
</radialGradient>
<radialGradient id="paint2_radial_9964_4059" cx="0" cy="0" r="1" gradientTransform="matrix(-10.5605 16.4396 -12.0161 -7.7196 21.6052 44.5506)" gradientUnits="userSpaceOnUse">
<stop offset="0.734" stop-color="#750D1D" stop-opacity="0.4" style="stop-color:#750D1D;stop-color:color(display-p3 0.4588 0.0510 0.1137);stop-opacity:0.4;"/>
<stop offset="1" stop-color="#750D1D" stop-opacity="0" style="stop-color:none;stop-opacity:0;"/>
</radialGradient>
<radialGradient id="paint3_radial_9964_4059" cx="0" cy="0" r="1" gradientUnits="userSpaceOnUse" gradientTransform="translate(40.6044 36.7481) scale(34.1683 34.1683)">
<stop offset="0.147" stop-color="#590A16" style="stop-color:#590A16;stop-color:color(display-p3 0.3490 0.0392 0.0863);stop-opacity:1;"/>
<stop offset="0.259" stop-color="#B52339" style="stop-color:#B52339;stop-color:color(display-p3 0.7098 0.1373 0.2235);stop-opacity:1;"/>
<stop offset="0.395" stop-color="#E85A8E" style="stop-color:#E85A8E;stop-color:color(display-p3 0.9098 0.3529 0.5569);stop-opacity:1;"/>
<stop offset="0.401" stop-color="#EA5D91" style="stop-color:#EA5D91;stop-color:color(display-p3 0.9176 0.3647 0.5686);stop-opacity:1;"/>
<stop offset="0.471" stop-color="#F974A8" style="stop-color:#F974A8;stop-color:color(display-p3 0.9765 0.4549 0.6588);stop-opacity:1;"/>
<stop offset="0.515" stop-color="#FF7DB1" style="stop-color:#FF7DB1;stop-color:color(display-p3 1.0000 0.4902 0.6941);stop-opacity:1;"/>
<stop offset="0.684" stop-color="#FF91C0" style="stop-color:#FF91C0;stop-color:color(display-p3 1.0000 0.5686 0.7529);stop-opacity:1;"/>
<stop offset="1" stop-color="#FFC0E3" style="stop-color:#FFC0E3;stop-color:color(display-p3 1.0000 0.7529 0.8902);stop-opacity:1;"/>
</radialGradient>
<radialGradient id="paint4_radial_9964_4059" cx="0" cy="0" r="1" gradientTransform="matrix(14.8479 1.56466 -0.88087 8.36379 24.3134 27.2077)" gradientUnits="userSpaceOnUse">
<stop offset="0.734" stop-color="#750D1D" stop-opacity="0.4" style="stop-color:#750D1D;stop-color:color(display-p3 0.4588 0.0510 0.1137);stop-opacity:0.4;"/>
<stop offset="1" stop-color="#750D1D" stop-opacity="0" style="stop-color:none;stop-opacity:0;"/>
</radialGradient>
<radialGradient id="paint5_radial_9964_4059" cx="0" cy="0" r="1" gradientUnits="userSpaceOnUse" gradientTransform="translate(40.1691 36.2065) scale(33.395)">
<stop offset="0.147" stop-color="#590A16" style="stop-color:#590A16;stop-color:color(display-p3 0.3490 0.0392 0.0863);stop-opacity:1;"/>
<stop offset="0.259" stop-color="#B52339" style="stop-color:#B52339;stop-color:color(display-p3 0.7098 0.1373 0.2235);stop-opacity:1;"/>
<stop offset="0.395" stop-color="#E85A8E" style="stop-color:#E85A8E;stop-color:color(display-p3 0.9098 0.3529 0.5569);stop-opacity:1;"/>
<stop offset="0.401" stop-color="#EA5D91" style="stop-color:#EA5D91;stop-color:color(display-p3 0.9176 0.3647 0.5686);stop-opacity:1;"/>
<stop offset="0.471" stop-color="#F974A8" style="stop-color:#F974A8;stop-color:color(display-p3 0.9765 0.4549 0.6588);stop-opacity:1;"/>
<stop offset="0.515" stop-color="#FF7DB1" style="stop-color:#FF7DB1;stop-color:color(display-p3 1.0000 0.4902 0.6941);stop-opacity:1;"/>
<stop offset="0.684" stop-color="#FF91C0" style="stop-color:#FF91C0;stop-color:color(display-p3 1.0000 0.5686 0.7529);stop-opacity:1;"/>
<stop offset="1" stop-color="#FFC0E3" style="stop-color:#FFC0E3;stop-color:color(display-p3 1.0000 0.7529 0.8902);stop-opacity:1;"/>
</radialGradient>
<radialGradient id="paint6_radial_9964_4059" cx="0" cy="0" r="1" gradientTransform="matrix(5.00348 14.3173 -8.97563 3.13647 44.4118 20.0343)" gradientUnits="userSpaceOnUse">
<stop offset="0.734" stop-color="#750D1D" stop-opacity="0.4" style="stop-color:#750D1D;stop-color:color(display-p3 0.4588 0.0510 0.1137);stop-opacity:0.4;"/>
<stop offset="1" stop-color="#750D1D" stop-opacity="0" style="stop-color:none;stop-opacity:0;"/>
</radialGradient>
<radialGradient id="paint7_radial_9964_4059" cx="0" cy="0" r="1" gradientUnits="userSpaceOnUse" gradientTransform="translate(42.214 34.6256) scale(28.855)">
<stop offset="0.147" stop-color="#590A16" style="stop-color:#590A16;stop-color:color(display-p3 0.3490 0.0392 0.0863);stop-opacity:1;"/>
<stop offset="0.259" stop-color="#B52339" style="stop-color:#B52339;stop-color:color(display-p3 0.7098 0.1373 0.2235);stop-opacity:1;"/>
<stop offset="0.395" stop-color="#E85A8E" style="stop-color:#E85A8E;stop-color:color(display-p3 0.9098 0.3529 0.5569);stop-opacity:1;"/>
<stop offset="0.401" stop-color="#EA5D91" style="stop-color:#EA5D91;stop-color:color(display-p3 0.9176 0.3647 0.5686);stop-opacity:1;"/>
<stop offset="0.471" stop-color="#F974A8" style="stop-color:#F974A8;stop-color:color(display-p3 0.9765 0.4549 0.6588);stop-opacity:1;"/>
<stop offset="0.515" stop-color="#FF7DB1" style="stop-color:#FF7DB1;stop-color:color(display-p3 1.0000 0.4902 0.6941);stop-opacity:1;"/>
<stop offset="0.684" stop-color="#FF91C0" style="stop-color:#FF91C0;stop-color:color(display-p3 1.0000 0.5686 0.7529);stop-opacity:1;"/>
<stop offset="1" stop-color="#FFC0E3" style="stop-color:#FFC0E3;stop-color:color(display-p3 1.0000 0.7529 0.8902);stop-opacity:1;"/>
</radialGradient>
<radialGradient id="paint8_radial_9964_4059" cx="0" cy="0" r="1" gradientTransform="matrix(12.3602 -8.06157 4.85494 7.44474 58.256 34.7155)" gradientUnits="userSpaceOnUse">
<stop offset="0.734" stop-color="#750D1D" stop-opacity="0.4" style="stop-color:#750D1D;stop-color:color(display-p3 0.4588 0.0510 0.1137);stop-opacity:0.4;"/>
<stop offset="1" stop-color="#750D1D" stop-opacity="0" style="stop-color:none;stop-opacity:0;"/>
</radialGradient>
<radialGradient id="paint9_radial_9964_4059" cx="0" cy="0" r="1" gradientUnits="userSpaceOnUse" gradientTransform="translate(41.9423 36.2232) scale(32.265 32.265)">
<stop offset="0.147" stop-color="#590A16" style="stop-color:#590A16;stop-color:color(display-p3 0.3490 0.0392 0.0863);stop-opacity:1;"/>
<stop offset="0.259" stop-color="#B52339" style="stop-color:#B52339;stop-color:color(display-p3 0.7098 0.1373 0.2235);stop-opacity:1;"/>
<stop offset="0.395" stop-color="#E85A8E" style="stop-color:#E85A8E;stop-color:color(display-p3 0.9098 0.3529 0.5569);stop-opacity:1;"/>
<stop offset="0.401" stop-color="#EA5D91" style="stop-color:#EA5D91;stop-color:color(display-p3 0.9176 0.3647 0.5686);stop-opacity:1;"/>
<stop offset="0.471" stop-color="#F974A8" style="stop-color:#F974A8;stop-color:color(display-p3 0.9765 0.4549 0.6588);stop-opacity:1;"/>
<stop offset="0.515" stop-color="#FF7DB1" style="stop-color:#FF7DB1;stop-color:color(display-p3 1.0000 0.4902 0.6941);stop-opacity:1;"/>
<stop offset="0.684" stop-color="#FF91C0" style="stop-color:#FF91C0;stop-color:color(display-p3 1.0000 0.5686 0.7529);stop-opacity:1;"/>
<stop offset="1" stop-color="#FFC0E3" style="stop-color:#FFC0E3;stop-color:color(display-p3 1.0000 0.7529 0.8902);stop-opacity:1;"/>
</radialGradient>
<radialGradient id="paint10_radial_9964_4059" cx="0" cy="0" r="1" gradientTransform="matrix(8.94224 11.3844 -7.11094 5.5851 48.6284 51.5904)" gradientUnits="userSpaceOnUse">
<stop offset="0.734" stop-color="#750D1D" stop-opacity="0.4" style="stop-color:#750D1D;stop-color:color(display-p3 0.4588 0.0510 0.1137);stop-opacity:0.4;"/>
<stop offset="1" stop-color="#750D1D" stop-opacity="0" style="stop-color:none;stop-opacity:0;"/>
</radialGradient>
<radialGradient id="paint11_radial_9964_4059" cx="0" cy="0" r="1" gradientTransform="matrix(23.8043 2.79856 2.79856 25.7133 37.1899 32.7378)" gradientUnits="userSpaceOnUse">
<stop stop-color="#170306" stop-opacity="0.2" style="stop-color:#170306;stop-color:color(display-p3 0.0902 0.0118 0.0235);stop-opacity:0.2;"/>
<stop offset="0.376" stop-color="#37060E" stop-opacity="0.125" style="stop-color:#37060E;stop-color:color(display-p3 0.2157 0.0235 0.0549);stop-opacity:0.125;"/>
<stop offset="1" stop-color="#750D1D" stop-opacity="0" style="stop-color:none;stop-opacity:0;"/>
</radialGradient>
<radialGradient id="paint12_radial_9964_4059" cx="0" cy="0" r="1" gradientTransform="matrix(11.0598 -21.2653 25.0337 6.50088 36.3457 37.7179)" gradientUnits="userSpaceOnUse">
<stop stop-color="#170306" stop-opacity="0.2" style="stop-color:#170306;stop-color:color(display-p3 0.0902 0.0118 0.0235);stop-opacity:0.2;"/>
<stop offset="0.376" stop-color="#37060E" stop-opacity="0.125" style="stop-color:#37060E;stop-color:color(display-p3 0.2157 0.0235 0.0549);stop-opacity:0.125;"/>
<stop offset="1" stop-color="#750D1D" stop-opacity="0" style="stop-color:none;stop-opacity:0;"/>
</radialGradient>
<radialGradient id="paint13_radial_9964_4059" cx="0" cy="0" r="1" gradientTransform="matrix(-17.773 -16.0811 12.6266 -22.5749 42.1405 41.7929)" gradientUnits="userSpaceOnUse">
<stop stop-color="#170306" stop-opacity="0.2" style="stop-color:#170306;stop-color:color(display-p3 0.0902 0.0118 0.0235);stop-opacity:0.2;"/>
<stop offset="0.376" stop-color="#37060E" stop-opacity="0.125" style="stop-color:#37060E;stop-color:color(display-p3 0.2157 0.0235 0.0549);stop-opacity:0.125;"/>
<stop offset="1" stop-color="#750D1D" stop-opacity="0" style="stop-color:none;stop-opacity:0;"/>
</radialGradient>
<radialGradient id="paint14_radial_9964_4059" cx="0" cy="0" r="1" gradientTransform="matrix(-20.8665 11.796 -17.4403 -19.1015 45.9463 37.258)" gradientUnits="userSpaceOnUse">
<stop stop-color="#170306" stop-opacity="0.2" style="stop-color:#170306;stop-color:color(display-p3 0.0902 0.0118 0.0235);stop-opacity:0.2;"/>
<stop offset="0.376" stop-color="#37060E" stop-opacity="0.125" style="stop-color:#37060E;stop-color:color(display-p3 0.2157 0.0235 0.0549);stop-opacity:0.125;"/>
<stop offset="1" stop-color="#750D1D" stop-opacity="0" style="stop-color:none;stop-opacity:0;"/>
</radialGradient>
<radialGradient id="paint15_radial_9964_4059" cx="0" cy="0" r="1" gradientTransform="matrix(6.33807 23.1153 -22.7849 12.242 43.0412 33.2639)" gradientUnits="userSpaceOnUse">
<stop stop-color="#170306" stop-opacity="0.2" style="stop-color:#170306;stop-color:color(display-p3 0.0902 0.0118 0.0235);stop-opacity:0.2;"/>
<stop offset="0.376" stop-color="#37060E" stop-opacity="0.125" style="stop-color:#37060E;stop-color:color(display-p3 0.2157 0.0235 0.0549);stop-opacity:0.125;"/>
<stop offset="1" stop-color="#750D1D" stop-opacity="0" style="stop-color:none;stop-opacity:0;"/>
</radialGradient>
<radialGradient id="paint16_radial_9964_4059" cx="0" cy="0" r="1" gradientUnits="userSpaceOnUse" gradientTransform="translate(40.8587 36.8648) rotate(-17.554) scale(24.8483 24.8483)">
<stop stop-color="#AD4555" style="stop-color:#AD4555;stop-color:color(display-p3 0.6784 0.2706 0.3333);stop-opacity:1;"/>
<stop offset="0.129" stop-color="#C75667" style="stop-color:#C75667;stop-color:color(display-p3 0.7804 0.3373 0.4039);stop-opacity:1;"/>
<stop offset="0.21" stop-color="#D07B6D" style="stop-color:#D07B6D;stop-color:color(display-p3 0.8157 0.4824 0.4275);stop-opacity:1;"/>
<stop offset="0.304" stop-color="#D99E73" style="stop-color:#D99E73;stop-color:color(display-p3 0.8510 0.6196 0.4510);stop-opacity:1;"/>
<stop offset="0.403" stop-color="#E0BB78" style="stop-color:#E0BB78;stop-color:color(display-p3 0.8784 0.7333 0.4706);stop-opacity:1;"/>
<stop offset="0.509" stop-color="#E6D17B" style="stop-color:#E6D17B;stop-color:color(display-p3 0.9020 0.8196 0.4824);stop-opacity:1;"/>
<stop offset="0.624" stop-color="#EAE17E" style="stop-color:#EAE17E;stop-color:color(display-p3 0.9176 0.8824 0.4941);stop-opacity:1;"/>
<stop offset="0.754" stop-color="#ECEA80" style="stop-color:#ECEA80;stop-color:color(display-p3 0.9255 0.9176 0.5020);stop-opacity:1;"/>
<stop offset="0.934" stop-color="#EDED80" style="stop-color:#EDED80;stop-color:color(display-p3 0.9294 0.9294 0.5020);stop-opacity:1;"/>
</radialGradient>
<radialGradient id="paint17_radial_9964_4059" cx="0" cy="0" r="1" gradientUnits="userSpaceOnUse" gradientTransform="translate(48.3307 26.6667) scale(1.66667)">
<stop stop-color="#F0AF13" style="stop-color:#F0AF13;stop-color:color(display-p3 0.9412 0.6863 0.0745);stop-opacity:1;"/>
<stop offset="0.496" stop-color="#FFD226" style="stop-color:#FFD226;stop-color:color(display-p3 1.0000 0.8235 0.1490);stop-opacity:1;"/>
<stop offset="0.603" stop-color="#FFD32B" stop-opacity="0.789" style="stop-color:#FFD32B;stop-color:color(display-p3 1.0000 0.8275 0.1686);stop-opacity:0.789;"/>
<stop offset="0.736" stop-color="#FFD63B" stop-opacity="0.525" style="stop-color:#FFD63B;stop-color:color(display-p3 1.0000 0.8392 0.2314);stop-opacity:0.525;"/>
<stop offset="0.882" stop-color="#FFDC54" stop-opacity="0.235" style="stop-color:#FFDC54;stop-color:color(display-p3 1.0000 0.8627 0.3294);stop-opacity:0.235;"/>
<stop offset="1" stop-color="#FFE16E" stop-opacity="0" style="stop-color:none;stop-opacity:0;"/>
</radialGradient>
<radialGradient id="paint18_radial_9964_4059" cx="0" cy="0" r="1" gradientUnits="userSpaceOnUse" gradientTransform="translate(51.6667 25.0007) scale(1.66667)">
<stop stop-color="#F0AF13" style="stop-color:#F0AF13;stop-color:color(display-p3 0.9412 0.6863 0.0745);stop-opacity:1;"/>
<stop offset="0.496" stop-color="#FFD226" style="stop-color:#FFD226;stop-color:color(display-p3 1.0000 0.8235 0.1490);stop-opacity:1;"/>
<stop offset="0.603" stop-color="#FFD32B" stop-opacity="0.789" style="stop-color:#FFD32B;stop-color:color(display-p3 1.0000 0.8275 0.1686);stop-opacity:0.789;"/>
<stop offset="0.736" stop-color="#FFD63B" stop-opacity="0.525" style="stop-color:#FFD63B;stop-color:color(display-p3 1.0000 0.8392 0.2314);stop-opacity:0.525;"/>
<stop offset="0.882" stop-color="#FFDC54" stop-opacity="0.235" style="stop-color:#FFDC54;stop-color:color(display-p3 1.0000 0.8627 0.3294);stop-opacity:0.235;"/>
<stop offset="1" stop-color="#FFE16E" stop-opacity="0" style="stop-color:none;stop-opacity:0;"/>
</radialGradient>
<radialGradient id="paint19_radial_9964_4059" cx="0" cy="0" r="1" gradientUnits="userSpaceOnUse" gradientTransform="translate(48.3307 23.3327) scale(1.66667)">
<stop stop-color="#F0AF13" style="stop-color:#F0AF13;stop-color:color(display-p3 0.9412 0.6863 0.0745);stop-opacity:1;"/>
<stop offset="0.496" stop-color="#FFD226" style="stop-color:#FFD226;stop-color:color(display-p3 1.0000 0.8235 0.1490);stop-opacity:1;"/>
<stop offset="0.603" stop-color="#FFD32B" stop-opacity="0.789" style="stop-color:#FFD32B;stop-color:color(display-p3 1.0000 0.8275 0.1686);stop-opacity:0.789;"/>
<stop offset="0.736" stop-color="#FFD63B" stop-opacity="0.525" style="stop-color:#FFD63B;stop-color:color(display-p3 1.0000 0.8392 0.2314);stop-opacity:0.525;"/>
<stop offset="0.882" stop-color="#FFDC54" stop-opacity="0.235" style="stop-color:#FFDC54;stop-color:color(display-p3 1.0000 0.8627 0.3294);stop-opacity:0.235;"/>
<stop offset="1" stop-color="#FFE16E" stop-opacity="0" style="stop-color:none;stop-opacity:0;"/>
</radialGradient>
<radialGradient id="paint20_radial_9964_4059" cx="0" cy="0" r="1" gradientUnits="userSpaceOnUse" gradientTransform="translate(48.3307 20.0007) scale(1.66667)">
<stop stop-color="#F0AF13" style="stop-color:#F0AF13;stop-color:color(display-p3 0.9412 0.6863 0.0745);stop-opacity:1;"/>
<stop offset="0.496" stop-color="#FFD226" style="stop-color:#FFD226;stop-color:color(display-p3 1.0000 0.8235 0.1490);stop-opacity:1;"/>
<stop offset="0.603" stop-color="#FFD32B" stop-opacity="0.789" style="stop-color:#FFD32B;stop-color:color(display-p3 1.0000 0.8275 0.1686);stop-opacity:0.789;"/>
<stop offset="0.736" stop-color="#FFD63B" stop-opacity="0.525" style="stop-color:#FFD63B;stop-color:color(display-p3 1.0000 0.8392 0.2314);stop-opacity:0.525;"/>
<stop offset="0.882" stop-color="#FFDC54" stop-opacity="0.235" style="stop-color:#FFDC54;stop-color:color(display-p3 1.0000 0.8627 0.3294);stop-opacity:0.235;"/>
<stop offset="1" stop-color="#FFE16E" stop-opacity="0" style="stop-color:none;stop-opacity:0;"/>
</radialGradient>
<radialGradient id="paint21_radial_9964_4059" cx="0" cy="0" r="1" gradientUnits="userSpaceOnUse" gradientTransform="translate(51.6667 20.0007) scale(1.66667)">
<stop stop-color="#F0AF13" style="stop-color:#F0AF13;stop-color:color(display-p3 0.9412 0.6863 0.0745);stop-opacity:1;"/>
<stop offset="0.496" stop-color="#FFD226" style="stop-color:#FFD226;stop-color:color(display-p3 1.0000 0.8235 0.1490);stop-opacity:1;"/>
<stop offset="0.603" stop-color="#FFD32B" stop-opacity="0.789" style="stop-color:#FFD32B;stop-color:color(display-p3 1.0000 0.8275 0.1686);stop-opacity:0.789;"/>
<stop offset="0.736" stop-color="#FFD63B" stop-opacity="0.525" style="stop-color:#FFD63B;stop-color:color(display-p3 1.0000 0.8392 0.2314);stop-opacity:0.525;"/>
<stop offset="0.882" stop-color="#FFDC54" stop-opacity="0.235" style="stop-color:#FFDC54;stop-color:color(display-p3 1.0000 0.8627 0.3294);stop-opacity:0.235;"/>
<stop offset="1" stop-color="#FFE16E" stop-opacity="0" style="stop-color:none;stop-opacity:0;"/>
</radialGradient>
<radialGradient id="paint22_radial_9964_4059" cx="0" cy="0" r="1" gradientUnits="userSpaceOnUse" gradientTransform="translate(53.3307 21.6667) scale(1.66667)">
<stop stop-color="#F0AF13" style="stop-color:#F0AF13;stop-color:color(display-p3 0.9412 0.6863 0.0745);stop-opacity:1;"/>
<stop offset="0.496" stop-color="#FFD226" style="stop-color:#FFD226;stop-color:color(display-p3 1.0000 0.8235 0.1490);stop-opacity:1;"/>
<stop offset="0.603" stop-color="#FFD32B" stop-opacity="0.789" style="stop-color:#FFD32B;stop-color:color(display-p3 1.0000 0.8275 0.1686);stop-opacity:0.789;"/>
<stop offset="0.736" stop-color="#FFD63B" stop-opacity="0.525" style="stop-color:#FFD63B;stop-color:color(display-p3 1.0000 0.8392 0.2314);stop-opacity:0.525;"/>
<stop offset="0.882" stop-color="#FFDC54" stop-opacity="0.235" style="stop-color:#FFDC54;stop-color:color(display-p3 1.0000 0.8627 0.3294);stop-opacity:0.235;"/>
<stop offset="1" stop-color="#FFE16E" stop-opacity="0" style="stop-color:none;stop-opacity:0;"/>
</radialGradient>
<radialGradient id="paint23_radial_9964_4059" cx="0" cy="0" r="1" gradientUnits="userSpaceOnUse" gradientTransform="translate(50.0026 21.6667) scale(1.66667)">
<stop stop-color="#F0AF13" style="stop-color:#F0AF13;stop-color:color(display-p3 0.9412 0.6863 0.0745);stop-opacity:1;"/>
<stop offset="0.496" stop-color="#FFD226" style="stop-color:#FFD226;stop-color:color(display-p3 1.0000 0.8235 0.1490);stop-opacity:1;"/>
<stop offset="0.603" stop-color="#FFD32B" stop-opacity="0.789" style="stop-color:#FFD32B;stop-color:color(display-p3 1.0000 0.8275 0.1686);stop-opacity:0.789;"/>
<stop offset="0.736" stop-color="#FFD63B" stop-opacity="0.525" style="stop-color:#FFD63B;stop-color:color(display-p3 1.0000 0.8392 0.2314);stop-opacity:0.525;"/>
<stop offset="0.882" stop-color="#FFDC54" stop-opacity="0.235" style="stop-color:#FFDC54;stop-color:color(display-p3 1.0000 0.8627 0.3294);stop-opacity:0.235;"/>
<stop offset="1" stop-color="#FFE16E" stop-opacity="0" style="stop-color:none;stop-opacity:0;"/>
</radialGradient>
<radialGradient id="paint24_radial_9964_4059" cx="0" cy="0" r="1" gradientUnits="userSpaceOnUse" gradientTransform="translate(46.6667 25.0007) scale(1.66667)">
<stop stop-color="#F0AF13" style="stop-color:#F0AF13;stop-color:color(display-p3 0.9412 0.6863 0.0745);stop-opacity:1;"/>
<stop offset="0.496" stop-color="#FFD226" style="stop-color:#FFD226;stop-color:color(display-p3 1.0000 0.8235 0.1490);stop-opacity:1;"/>
<stop offset="0.603" stop-color="#FFD32B" stop-opacity="0.789" style="stop-color:#FFD32B;stop-color:color(display-p3 1.0000 0.8275 0.1686);stop-opacity:0.789;"/>
<stop offset="0.736" stop-color="#FFD63B" stop-opacity="0.525" style="stop-color:#FFD63B;stop-color:color(display-p3 1.0000 0.8392 0.2314);stop-opacity:0.525;"/>
<stop offset="0.882" stop-color="#FFDC54" stop-opacity="0.235" style="stop-color:#FFDC54;stop-color:color(display-p3 1.0000 0.8627 0.3294);stop-opacity:0.235;"/>
<stop offset="1" stop-color="#FFE16E" stop-opacity="0" style="stop-color:none;stop-opacity:0;"/>
</radialGradient>
</defs>
</svg>
