<svg width="32" height="32" viewBox="0 0 32 32" fill="none" xmlns="http://www.w3.org/2000/svg">
<path d="M25.9445 4.29022C28.0285 6.37423 28.0293 9.75388 25.9453 11.8379C23.8613 13.9219 23.8613 17.3008 25.9453 19.3848C28.0293 21.4688 28.0285 24.8484 25.9445 26.9324C23.8597 29.0172 20.4779 29.0172 18.3929 26.9325C16.3088 24.8486 16.3077 21.4687 18.3917 19.3846C20.4757 17.3007 20.4757 13.922 18.3917 11.838C16.3077 9.75397 16.3088 6.37407 18.3929 4.29016C20.4779 2.2055 23.8597 2.20543 25.9445 4.29022ZM8.80371 2C11.4568 2 13.6082 4.15067 13.6084 6.80371V25.1963C13.6084 27.8495 11.4569 30.001 8.80371 30.001C6.15067 30.0008 4 27.8494 4 25.1963V6.80371C4.00017 4.15077 6.15077 2.00017 8.80371 2Z" fill="black" style="fill:black;fill-opacity:1;"/>
</svg>
